<svg id="svg" xmlns="http://www.w3.org/2000/svg" xmlns:xlink="http://www.w3.org/1999/xlink" width="400" height="363.20000000000005" viewBox="0, 0, 400,363.20000000000005"><g id="svgg"><path id="path0" d="M7.221 9.900 C 5.942 20.645,6.247 43.286,7.839 55.800 C 13.981 104.088,37.689 140.656,77.722 163.587 C 82.306 166.214,88.558 169.301,101.121 175.143 C 116.487 182.289,120.873 185.937,122.798 193.171 C 124.385 199.137,122.112 208.593,117.268 216.173 C 115.716 218.601,115.916 218.922,120.332 221.104 C 125.722 223.768,132.178 223.425,138.451 220.140 C 142.240 218.157,145.366 215.444,156.050 204.865 C 168.820 192.221,171.263 190.617,177.600 190.710 C 183.349 190.794,190.106 193.246,196.030 197.397 L 199.200 199.618 199.250 198.109 C 199.602 187.392,196.685 179.478,190.360 173.990 C 177.184 162.558,167.532 148.993,164.621 137.816 C 162.187 128.470,170.615 130.066,176.804 140.123 C 178.849 143.445,186.400 158.448,186.400 159.188 C 186.400 159.415,186.583 159.600,186.808 159.600 C 187.264 159.600,187.148 159.003,185.717 154.000 C 180.580 136.027,169.079 118.821,155.980 109.514 C 148.095 103.910,141.744 101.204,128.044 97.608 C 96.016 89.200,68.052 74.807,46.821 55.801 C 37.968 47.875,33.522 42.440,22.857 26.505 C 14.260 13.659,8.551 5.600,8.048 5.600 C 7.874 5.600,7.502 7.535,7.221 9.900 M388.309 8.837 C 386.647 11.044,381.898 18.715,375.713 29.182 C 367.263 43.487,364.178 47.704,356.531 55.412 C 336.666 75.435,310.024 89.649,275.200 98.805 C 270.250 100.106,265.222 101.549,264.026 102.012 C 242.502 110.338,227.418 131.022,222.625 158.788 C 222.210 161.191,223.000 159.648,225.792 152.600 C 230.687 140.245,234.095 134.787,238.140 132.829 C 244.468 129.766,245.280 135.523,240.213 147.527 C 236.196 157.043,230.648 164.538,220.741 173.831 C 215.139 179.086,213.200 184.312,213.200 194.160 C 213.200 200.074,213.222 200.100,216.244 197.730 C 223.400 192.118,233.967 189.559,240.094 191.956 C 244.487 193.674,246.306 195.147,261.067 208.946 C 277.703 224.498,288.174 227.778,297.097 220.231 L 298.394 219.134 296.633 216.667 C 290.963 208.719,288.206 199.301,289.765 193.200 C 291.425 186.707,294.732 183.635,306.000 178.121 C 310.290 176.021,317.400 172.539,321.800 170.383 C 378.672 142.514,403.208 86.876,390.794 13.934 C 389.661 7.279,389.591 7.136,388.309 8.837 M22.559 34.971 C 28.412 43.727,36.163 53.072,55.594 74.800 C 69.565 90.423,67.991 102.577,53.541 90.646 C 45.865 84.307,35.984 69.510,24.277 46.823 C 21.843 42.105,19.780 38.460,19.693 38.722 C 19.340 39.780,29.264 66.964,31.942 72.276 C 41.978 92.184,64.905 110.210,82.448 111.986 C 92.953 113.050,95.617 114.614,106.013 125.814 C 116.554 137.171,122.212 141.426,128.037 142.373 C 131.594 142.952,135.658 141.867,137.575 139.827 L 138.447 138.899 134.523 138.617 C 127.247 138.094,125.239 137.235,121.139 132.888 C 114.786 126.154,115.392 122.158,122.754 122.238 C 134.881 122.370,144.325 130.907,149.829 146.713 C 151.839 152.483,152.612 151.193,152.294 142.600 C 151.470 120.328,131.659 107.184,97.800 106.442 C 84.991 106.162,85.023 106.170,80.902 102.272 C 75.082 96.768,72.424 90.028,74.377 85.727 C 76.140 81.844,79.223 81.865,86.200 85.810 C 94.259 90.365,102.930 93.943,116.741 98.411 C 135.597 104.511,146.904 110.941,157.291 121.472 L 159.982 124.200 157.823 124.065 C 152.505 123.732,152.813 127.087,159.688 144.400 C 168.939 167.696,168.467 176.280,157.535 183.580 C 154.746 185.443,154.287 185.429,155.712 183.526 C 160.435 177.220,160.334 166.800,155.551 166.800 C 152.786 166.800,150.963 171.709,150.425 180.600 C 150.037 186.996,149.335 189.383,146.600 193.600 C 144.206 197.290,141.447 199.698,143.566 196.247 C 148.286 188.562,146.402 173.200,140.740 173.200 C 139.146 173.200,139.025 174.463,139.613 184.919 C 139.889 189.826,139.989 194.676,139.836 195.699 C 139.089 200.683,134.547 206.014,128.389 209.136 C 125.462 210.620,125.164 210.707,126.200 209.773 C 126.860 209.178,128.204 207.956,129.186 207.058 C 133.527 203.088,135.814 197.328,135.522 191.098 C 135.129 182.741,131.190 179.826,116.200 176.799 C 109.413 175.429,105.788 173.159,103.844 169.064 C 102.033 165.250,102.096 164.786,104.119 167.031 C 111.655 175.391,123.170 173.874,124.601 164.333 C 125.869 155.880,117.448 150.574,103.200 150.848 C 79.077 151.313,68.776 148.363,60.464 138.607 C 51.907 128.564,55.827 116.865,66.104 121.776 L 67.607 122.495 65.803 123.639 C 60.758 126.839,61.379 134.155,67.241 140.569 C 77.704 152.017,101.866 144.489,98.195 130.925 C 96.453 124.490,92.813 122.265,79.000 119.191 C 64.068 115.869,57.527 112.359,47.971 102.544 C 30.892 84.999,19.723 58.297,12.647 18.091 C 12.518 17.361,13.826 19.558,15.607 23.063 C 17.361 26.516,20.490 31.875,22.559 34.971 M385.428 22.900 C 381.813 66.164,367.415 99.791,346.647 113.473 C 341.161 117.087,337.705 118.317,325.600 120.963 C 312.791 123.763,309.042 126.744,309.026 134.140 C 308.999 146.366,331.345 152.377,340.381 142.574 C 346.064 136.409,346.520 128.571,341.384 125.326 C 338.920 123.769,339.168 123.261,342.789 122.447 C 350.132 120.797,353.811 127.939,349.863 136.177 C 344.155 148.084,331.248 153.077,309.200 151.906 C 290.777 150.928,281.122 157.655,286.322 167.847 C 290.081 175.215,301.876 175.119,306.472 167.683 C 307.594 165.868,307.859 166.615,307.005 169.186 C 305.394 174.035,301.944 176.304,293.603 177.999 C 280.723 180.618,276.930 183.303,276.493 190.113 C 276.028 197.352,279.541 204.175,286.800 210.131 L 288.600 211.608 287.143 211.016 C 275.847 206.432,272.500 200.817,271.992 185.600 C 271.558 172.611,271.141 171.599,267.766 175.327 C 264.119 179.355,264.294 187.622,268.190 195.400 L 269.993 199.000 267.576 196.422 C 263.768 192.363,261.783 187.905,261.000 181.656 C 259.662 170.981,255.944 164.854,252.820 168.179 C 250.224 170.942,251.615 178.881,255.551 183.762 C 257.263 185.884,256.847 186.009,254.106 184.195 C 242.260 176.355,241.219 168.179,248.988 144.000 C 254.057 128.224,254.098 124.122,249.183 124.463 C 246.756 124.631,246.739 124.813,249.422 121.758 C 257.851 112.157,269.128 105.594,288.110 99.242 C 304.519 93.751,308.291 92.171,318.509 86.508 C 329.206 80.579,334.562 88.717,327.203 99.718 C 322.292 107.061,320.975 107.600,308.163 107.518 C 284.423 107.364,268.534 113.619,260.197 126.400 C 255.925 132.949,254.452 143.494,256.849 150.368 C 257.423 152.015,257.399 152.055,258.795 147.082 C 263.234 131.273,271.641 123.207,283.800 123.090 C 292.054 123.010,292.381 128.261,284.577 135.562 C 281.490 138.450,280.421 138.817,274.300 139.089 C 269.192 139.317,268.941 139.457,270.927 140.972 C 278.671 146.878,286.996 143.009,300.628 127.166 C 310.306 115.918,313.114 114.133,322.331 113.375 C 338.773 112.023,357.971 97.720,368.322 79.110 C 370.516 75.166,372.226 70.521,375.138 60.600 C 381.091 40.319,381.877 35.874,377.825 45.411 C 364.050 77.826,352.498 94.586,342.292 96.961 C 337.002 98.193,338.809 86.724,345.130 78.944 C 346.228 77.593,349.983 73.003,353.476 68.744 C 372.112 46.018,379.366 35.104,384.212 22.500 C 385.628 18.816,385.765 18.861,385.428 22.900 M17.437 50.400 C 26.311 84.221,34.440 98.834,51.800 112.175 C 56.328 115.655,56.439 115.759,55.200 115.399 C 50.152 113.930,43.347 109.078,38.423 103.438 C 22.265 84.927,25.075 97.766,43.055 124.600 L 47.611 131.400 44.075 127.760 C 24.194 107.295,12.015 72.427,12.001 35.933 C 11.999 29.927,12.388 29.988,13.863 36.223 C 14.588 39.291,16.196 45.670,17.437 50.400 M388.032 43.865 C 389.935 76.718,381.324 107.152,364.112 128.400 C 359.597 133.975,359.393 133.615,363.358 127.065 C 373.668 110.031,379.183 96.000,375.569 96.000 C 374.794 96.000,371.066 99.838,367.359 104.454 C 362.316 110.733,358.444 113.825,352.461 116.352 C 350.110 117.345,349.397 117.287,351.005 116.234 C 360.286 110.153,370.698 96.815,375.283 85.134 C 378.541 76.835,385.544 45.043,386.846 32.638 C 387.016 31.019,387.618 36.722,388.032 43.865 M136.200 66.462 C 133.634 67.865,133.910 71.833,136.808 75.200 L 137.668 76.200 137.419 75.200 C 135.633 68.018,139.375 66.679,144.217 72.766 C 146.471 75.599,146.481 75.563,143.457 75.479 C 136.865 75.296,138.481 80.488,147.866 89.650 C 156.842 98.411,159.329 99.153,152.040 90.894 C 145.882 83.916,144.320 79.714,148.718 81.958 C 154.663 84.991,167.306 106.258,191.484 153.900 C 196.425 163.635,200.619 171.600,200.805 171.600 C 201.848 171.600,169.129 107.149,159.685 90.600 C 148.708 71.366,141.250 63.700,136.200 66.462 M260.072 67.202 C 254.743 69.620,247.689 80.859,237.603 103.000 C 228.455 123.081,207.299 173.033,207.751 173.484 C 208.032 173.766,208.176 173.446,216.517 154.000 C 238.553 102.625,249.593 82.000,255.060 82.000 C 257.053 82.000,255.284 86.269,251.330 91.000 C 245.117 98.436,245.293 99.413,251.777 93.479 C 262.774 83.414,265.593 75.528,257.997 76.078 C 255.137 76.285,255.143 76.309,257.327 73.344 C 261.640 67.490,266.652 69.266,264.158 75.765 C 263.656 77.073,264.688 76.337,265.580 74.751 C 268.711 69.179,265.479 64.748,260.072 67.202 M80.457 88.743 C 77.393 91.807,80.506 99.851,85.725 102.357 C 87.623 103.268,93.850 104.023,98.942 103.959 C 101.854 103.923,102.051 103.874,100.800 103.506 C 90.644 100.511,87.200 98.378,87.200 95.081 C 87.200 93.161,88.329 93.394,94.535 96.599 C 102.977 100.957,102.913 100.346,94.259 93.995 C 87.020 88.683,82.310 86.890,80.457 88.743 M318.882 89.840 C 315.136 91.153,302.951 99.885,303.750 100.684 C 303.852 100.785,306.605 99.490,309.868 97.806 C 316.396 94.435,317.200 94.315,317.200 96.711 C 317.200 99.579,313.304 102.174,306.306 103.966 C 302.608 104.912,302.552 105.200,306.064 105.200 C 317.283 105.200,321.277 103.728,323.905 98.625 C 326.936 92.742,324.209 87.974,318.882 89.840 M82.214 125.233 C 90.234 127.711,92.667 133.176,87.371 136.820 C 81.057 141.164,72.712 138.354,68.662 130.520 C 67.658 128.579,67.800 128.604,70.497 130.849 C 75.047 134.635,78.438 135.583,81.868 134.025 C 86.573 131.889,84.967 127.538,78.768 125.631 C 73.708 124.074,73.576 123.982,76.753 124.229 C 78.378 124.355,80.835 124.807,82.214 125.233 M328.534 126.831 C 323.205 128.534,321.476 131.009,323.667 133.795 C 326.476 137.366,331.903 136.669,336.833 132.105 C 339.288 129.832,339.606 129.854,338.614 132.228 C 334.907 141.101,321.836 142.914,317.764 135.120 C 315.453 130.695,321.941 125.680,330.000 125.663 L 332.200 125.659 328.534 126.831 M52.600 151.200 C 55.033 155.137,74.102 169.918,84.509 175.935 C 97.560 183.480,100.207 185.804,98.579 188.288 C 97.086 190.567,92.579 191.404,88.433 190.173 C 85.524 189.309,85.483 189.655,88.176 192.376 C 94.731 199.000,102.999 198.712,105.384 191.777 C 106.124 189.622,106.830 189.798,107.884 192.400 C 110.010 197.648,108.485 201.453,103.581 203.135 C 99.536 204.523,97.688 204.563,93.000 203.366 C 91.487 202.980,95.478 206.230,98.077 207.501 C 103.690 210.246,107.449 209.500,110.685 205.000 L 111.548 203.800 112.174 205.287 C 114.114 209.896,112.599 213.449,107.609 215.995 C 104.303 217.682,107.087 218.630,111.023 217.157 C 116.444 215.129,118.572 211.137,118.571 203.000 C 118.568 190.729,113.061 184.315,94.800 175.313 C 82.206 169.105,72.512 163.544,58.932 154.736 C 53.005 150.891,52.095 150.383,52.600 151.200 M348.118 157.771 C 336.587 165.390,328.288 170.289,318.000 175.548 C 304.093 182.658,300.227 185.553,297.102 191.200 C 290.579 202.988,296.173 219.477,306.440 218.724 C 308.560 218.569,308.836 217.918,307.054 217.274 C 301.964 215.433,299.433 210.447,301.213 205.765 L 301.626 204.678 302.852 206.345 C 306.569 211.399,314.516 211.126,319.600 205.770 L 321.000 204.295 319.800 204.600 C 311.755 206.647,304.914 203.869,303.757 198.085 C 303.442 196.512,304.275 192.643,305.165 191.544 L 305.879 190.663 306.888 192.868 C 310.122 199.932,318.033 200.191,324.286 193.437 C 326.710 190.820,326.618 190.423,323.812 191.375 C 320.291 192.571,316.111 191.972,313.962 189.965 C 311.079 187.271,313.630 184.742,327.400 176.639 C 333.178 173.240,338.261 169.552,344.063 164.550 C 349.214 160.110,356.653 152.936,356.389 152.663 C 356.273 152.543,352.551 154.841,348.118 157.771 M114.917 155.434 C 120.828 157.448,120.742 165.260,114.800 166.149 C 110.059 166.857,104.408 162.654,102.410 156.934 L 102.014 155.800 102.707 156.785 C 105.088 160.167,106.638 161.750,108.283 162.478 C 113.758 164.900,116.429 159.544,111.519 155.987 L 109.880 154.800 111.469 154.800 C 112.343 154.800,113.894 155.085,114.917 155.434 M298.297 156.611 C 294.249 159.362,294.913 164.003,299.354 163.999 C 301.668 163.996,303.263 162.870,305.414 159.719 C 307.295 156.963,307.459 157.482,305.770 160.843 C 302.432 167.487,294.638 169.426,291.308 164.441 C 288.450 160.163,291.941 155.826,298.393 155.640 L 299.786 155.600 298.297 156.611 M180.817 171.672 C 185.241 173.883,190.393 179.637,193.545 185.889 C 195.217 189.205,195.162 189.237,192.579 186.447 C 189.866 183.516,188.935 183.191,183.600 183.308 C 175.833 183.478,169.947 178.807,171.604 173.787 C 172.773 170.246,176.330 169.429,180.817 171.672 M236.955 171.548 C 244.059 175.561,237.705 183.571,227.400 183.593 C 221.840 183.605,220.944 183.955,218.784 186.962 C 217.026 189.410,216.896 189.051,218.317 185.669 C 222.706 175.223,231.570 168.506,236.955 171.548 M203.148 175.155 C 200.949 176.884,200.663 180.063,202.637 180.814 C 206.269 182.195,209.667 180.734,208.886 178.128 C 207.973 175.082,205.120 173.604,203.148 175.155 M203.106 183.167 C 200.956 185.089,200.970 189.495,203.147 195.892 L 204.773 200.669 204.008 202.681 C 201.276 209.872,202.202 225.591,206.832 250.600 C 208.820 261.342,209.012 261.003,210.380 244.367 C 212.203 222.177,211.688 209.684,208.674 203.043 L 207.774 201.059 208.884 196.830 C 211.598 186.488,208.250 178.571,203.106 183.167 M166.827 184.683 C 168.062 188.425,162.185 194.337,157.020 194.550 C 153.358 194.701,158.567 185.985,163.773 183.249 C 165.602 182.288,166.117 182.530,166.827 184.683 M247.320 183.447 C 252.945 186.288,258.921 194.729,255.583 195.119 C 251.155 195.635,243.729 188.534,244.798 184.805 C 245.438 182.576,245.514 182.535,247.320 183.447 M153.168 196.961 C 155.744 200.065,153.490 204.342,147.856 207.042 C 144.334 208.730,142.800 208.834,142.800 207.387 C 142.800 203.236,151.290 194.699,153.168 196.961 M262.109 197.855 C 267.661 200.668,273.414 209.886,269.094 209.046 C 262.292 207.723,256.904 201.425,259.296 197.595 C 259.904 196.622,259.625 196.596,262.109 197.855 M173.755 201.795 C 168.398 202.961,167.178 204.008,159.877 213.707 C 146.568 231.390,143.402 233.863,133.367 234.415 C 126.597 234.788,126.857 234.676,128.121 236.662 C 131.204 241.504,134.983 243.617,141.224 243.984 C 146.256 244.281,147.600 245.010,147.600 247.439 C 147.600 250.891,144.740 252.400,138.197 252.400 L 133.155 252.400 133.877 253.638 C 136.059 257.377,141.633 261.267,145.940 262.056 C 153.997 263.532,151.908 277.861,140.846 297.000 C 121.344 330.741,116.446 359.229,130.604 356.573 C 139.474 354.909,146.969 336.500,151.600 305.000 C 156.301 273.025,161.654 262.891,167.413 275.065 C 171.229 283.131,170.334 290.356,164.343 299.843 C 162.377 302.957,162.320 303.793,164.100 303.449 C 169.499 302.405,176.293 296.290,179.711 289.399 C 183.060 282.646,183.610 279.450,183.980 264.600 C 184.383 248.462,185.693 242.713,189.559 240.114 C 196.059 235.744,197.793 247.192,191.958 255.949 L 191.059 257.299 192.029 257.002 C 208.179 252.058,206.794 233.201,189.600 223.927 C 183.113 220.427,182.047 218.881,182.985 214.329 C 183.910 209.839,188.294 207.265,195.269 207.117 C 199.091 207.035,199.138 206.837,195.700 205.300 C 187.931 201.827,179.672 200.508,173.755 201.795 M227.587 202.196 C 224.292 202.853,219.204 204.589,216.600 205.944 L 214.600 206.985 218.200 207.222 C 225.202 207.683,229.279 209.837,230.799 213.877 C 232.605 218.678,231.624 220.490,225.301 224.021 C 210.110 232.506,208.430 249.033,222.072 255.776 C 225.930 257.682,226.324 257.531,224.517 254.838 C 219.283 247.042,219.975 236.891,225.544 239.771 C 230.276 242.218,233.070 250.408,234.013 264.600 C 235.372 285.040,241.429 296.697,253.789 302.656 C 258.992 305.164,259.420 304.561,255.990 299.553 C 254.664 297.618,252.819 294.452,251.890 292.517 L 250.200 289.000 250.200 284.000 C 250.200 278.114,251.162 274.546,253.383 272.191 C 258.429 266.840,263.517 277.840,270.411 309.000 C 276.759 337.696,287.234 357.582,296.000 357.582 C 308.852 357.582,301.906 332.416,279.226 296.800 C 267.015 277.625,264.009 263.621,271.903 262.686 C 275.861 262.217,281.040 258.492,283.323 254.473 L 284.045 253.200 279.086 253.200 C 273.119 253.200,271.239 252.493,269.659 249.653 C 267.786 246.284,269.357 244.969,275.600 244.685 C 281.333 244.423,285.337 242.037,287.650 237.502 C 288.679 235.484,289.047 235.643,282.407 235.228 C 272.270 234.593,267.709 231.122,252.810 212.703 C 244.322 202.210,238.882 199.944,227.587 202.196 M180.193 205.705 C 180.965 206.120,180.954 206.152,179.931 206.427 C 174.026 208.015,173.006 211.340,175.263 221.637 C 179.235 239.753,172.806 255.267,159.182 260.444 C 156.221 261.569,156.346 261.268,160.184 258.036 C 169.864 249.885,177.285 226.800,170.225 226.800 C 167.600 226.800,166.485 228.896,164.616 237.338 C 161.758 250.244,158.032 254.789,150.300 254.798 C 147.891 254.801,147.902 254.426,150.343 253.267 C 153.179 251.920,155.014 250.252,156.559 247.615 C 158.173 244.862,160.800 238.455,160.800 237.273 L 160.800 236.445 158.900 237.312 C 156.181 238.552,152.044 238.515,149.600 237.229 C 147.830 236.297,147.816 236.275,148.800 235.911 C 155.568 233.402,159.996 228.100,163.974 217.742 C 167.662 208.142,174.830 202.822,180.193 205.705 M240.685 206.626 C 244.079 208.283,247.043 211.904,250.409 218.507 C 256.037 229.546,262.346 236.400,266.879 236.400 C 268.140 236.400,267.659 237.100,265.769 238.015 C 263.579 239.075,259.082 238.987,256.873 237.840 C 254.822 236.776,254.725 237.150,256.146 240.670 C 258.874 247.427,262.138 251.630,266.218 253.639 C 269.265 255.139,269.202 255.801,266.046 255.443 C 258.850 254.627,254.816 249.955,251.450 238.537 C 248.798 229.540,247.476 227.200,245.046 227.200 C 238.225 227.200,246.541 249.763,256.290 257.708 C 257.971 259.079,259.809 260.604,260.374 261.097 L 261.400 261.994 259.676 261.406 C 244.877 256.361,236.617 240.296,239.358 221.888 C 240.745 212.573,240.031 209.877,235.589 207.658 C 232.953 206.340,232.674 205.946,234.076 205.520 C 235.590 205.060,238.462 205.541,240.685 206.626 M139.777 208.889 C 141.787 211.759,138.361 216.005,132.732 217.619 C 129.144 218.648,132.333 211.947,136.770 209.133 C 138.920 207.770,138.989 207.764,139.777 208.889 M276.319 209.559 C 280.801 211.845,285.297 219.460,281.527 218.379 C 275.930 216.774,272.302 212.809,273.674 209.798 C 274.219 208.600,274.407 208.583,276.319 209.559 M141.627 319.290 C 138.191 339.747,133.293 350.878,128.842 348.346 C 125.392 346.384,132.067 326.479,140.352 314.024 C 143.131 309.847,143.179 310.049,141.627 319.290 M283.672 317.758 C 291.330 329.209,298.373 345.950,296.644 348.589 C 292.597 354.766,285.055 339.333,278.964 312.411 L 278.740 311.422 279.615 312.211 C 280.096 312.645,281.921 315.141,283.672 317.758 " stroke="none" fill="#000000" fill-rule="evenodd"></path></g></svg>