<svg id="svg" xmlns="http://www.w3.org/2000/svg" xmlns:xlink="http://www.w3.org/1999/xlink" width="400" height="754.2857142857143" viewBox="0, 0, 400,754.2857142857143"><g id="svgg"><path id="path0" d="M228.095 0.575 C 220.270 1.734,210.478 4.273,205.298 6.485 C 199.746 8.857,188.949 15.181,192.857 13.771 C 221.583 3.414,238.095 3.549,238.095 14.144 C 238.095 21.754,230.943 24.586,184.953 35.188 C 148.072 43.690,137.478 56.914,135.308 97.165 C 134.263 116.544,130.317 120.262,116.015 115.342 L 110.779 113.540 114.939 120.818 C 125.802 139.824,128.201 163.318,122.468 194.544 C 116.239 228.473,113.674 256.922,115.237 274.750 C 116.383 287.816,116.666 287.054,111.182 285.673 C 106.953 284.608,105.121 284.869,93.571 288.179 C 92.176 288.579,91.429 288.384,91.429 287.619 C 91.429 286.973,89.026 283.850,86.089 280.677 C 38.706 229.498,29.342 181.746,63.141 163.658 C 65.184 162.564,64.946 172.708,62.728 181.287 C 62.206 183.304,61.992 185.167,62.252 185.426 C 62.975 186.150,66.533 173.941,67.667 166.843 C 68.222 163.368,69.189 160.190,69.814 159.782 C 74.828 156.515,94.881 153.960,98.849 156.084 C 104.499 159.108,103.204 172.380,95.762 187.728 L 94.198 190.952 96.621 188.095 C 103.366 180.143,114.079 151.137,111.696 147.281 C 110.129 144.746,83.133 148.625,73.062 152.833 C 71.150 153.632,69.464 154.285,69.316 154.285 C 69.169 154.285,68.975 151.178,68.887 147.380 C 68.798 143.583,68.443 138.200,68.097 135.417 L 67.467 130.358 64.448 130.983 C 53.805 133.186,35.754 142.474,25.156 151.202 C -22.338 190.314,0.394 242.966,82.857 284.846 C 87.310 287.108,91.135 289.089,91.359 289.251 C 91.583 289.412,90.671 290.718,89.333 292.153 C 81.274 300.794,83.467 314.163,93.573 318.005 C 96.052 318.948,96.190 319.323,96.190 325.106 C 96.190 334.030,99.658 340.336,106.940 344.657 L 112.381 347.886 112.402 352.753 C 112.426 358.349,115.016 364.784,118.120 366.958 C 120.096 368.342,120.243 369.118,120.092 377.322 C 119.733 396.765,130.002 414.244,150.906 429.774 C 157.909 434.977,158.572 435.272,159.718 433.706 C 161.276 431.575,166.667 417.685,166.667 415.801 C 166.667 415.030,167.095 414.133,167.619 413.810 C 168.143 413.486,168.571 413.841,168.571 414.599 C 168.571 417.024,173.283 432.566,176.794 441.727 C 188.806 473.060,210.648 502.495,235.364 520.657 C 242.849 526.158,242.907 526.234,245.248 533.595 C 264.077 592.800,266.285 666.802,249.401 672.740 C 236.957 677.116,225.496 660.753,219.974 630.728 L 218.089 620.476 218.529 631.429 C 219.649 659.258,232.625 685.138,251.696 697.578 C 254.927 699.685,254.336 700.397,258.385 689.524 C 276.172 641.755,272.494 584.966,248.344 534.524 C 246.526 530.726,245.194 527.619,245.384 527.619 C 246.151 527.619,263.932 540.807,272.857 547.996 C 338.671 601.007,378.607 677.296,359.852 714.182 C 345.579 742.253,321.470 726.136,308.010 679.524 L 306.635 674.762 307.180 680.000 C 311.015 716.889,335.448 747.323,366.184 753.495 C 372.365 754.737,372.365 754.737,373.425 749.060 C 389.710 661.894,342.176 574.497,251.694 525.238 L 242.947 520.476 239.577 513.151 C 227.889 487.742,225.175 459.618,232.959 444.564 L 234.337 441.901 239.311 445.863 C 245.503 450.795,257.756 456.644,265.805 458.511 C 270.118 459.511,272.323 460.564,273.333 462.106 C 306.720 513.056,344.107 534.353,375.476 520.290 C 382.105 517.319,382.084 517.583,376.179 511.121 C 367.898 502.061,360.133 498.051,350.751 497.991 C 343.132 497.942,341.356 499.599,348.348 500.233 C 367.691 501.987,368.055 518.095,348.752 518.095 C 327.640 518.095,302.143 499.681,279.559 468.122 C 273.090 459.082,273.705 458.416,283.007 464.393 C 336.271 498.614,378.326 497.942,396.667 462.577 L 399.524 457.068 397.146 455.258 C 386.604 447.230,368.312 447.868,360.051 456.550 C 356.095 460.708,356.154 460.719,363.229 457.131 C 379.990 448.631,387.556 462.746,373.171 475.679 C 358.552 488.823,326.111 487.140,299.260 471.845 C 299.115 471.763,300.475 469.499,302.282 466.814 C 311.199 453.563,313.482 435.696,308.482 418.285 C 303.157 399.742,305.686 387.925,318.370 372.084 C 330.112 357.419,334.607 340.987,327.254 339.608 C 293.919 333.354,285.257 286.715,315.994 278.977 L 321.993 277.467 317.758 273.563 C 307.468 264.078,291.140 254.259,283.172 252.764 C 279.425 252.061,279.506 252.694,281.943 243.248 C 284.811 232.130,285.350 219.501,283.436 208.269 C 281.523 197.050,281.099 197.833,291.802 192.839 C 306.271 186.089,323.690 181.564,331.734 182.466 C 332.876 182.594,335.095 182.741,336.667 182.792 C 341.483 182.951,342.136 183.868,340.577 188.287 C 339.826 190.413,338.717 195.526,338.111 199.648 C 334.017 227.495,321.109 246.217,301.466 252.802 C 300.122 253.252,302.368 254.357,309.486 256.745 C 326.744 262.535,337.693 269.872,341.830 278.417 C 344.923 284.806,344.671 285.238,337.855 285.238 C 326.702 285.238,320.476 293.426,320.476 308.095 C 320.476 319.381,324.133 324.901,337.794 334.240 C 350.518 342.937,349.625 352.088,335.327 359.537 C 332.921 360.791,331.636 361.836,332.471 361.860 C 337.162 361.997,350.602 349.950,354.787 341.856 L 356.127 339.266 349.418 337.109 C 333.048 331.845,323.671 321.852,323.557 309.549 C 323.407 293.424,336.377 285.935,351.159 293.611 C 357.376 296.839,357.173 296.880,356.039 292.619 C 350.968 273.562,334.178 256.271,318.275 253.728 L 314.268 253.087 321.183 245.829 C 333.212 233.205,338.863 222.494,343.353 203.810 C 346.876 189.149,350.431 182.846,356.393 180.692 C 357.375 180.337,357.350 179.797,356.271 177.982 C 346.070 160.829,347.354 148.349,360.562 136.278 C 363.527 133.568,365.792 131.237,365.596 131.098 C 339.978 113.039,330.854 98.249,337.931 86.255 C 339.878 82.956,339.881 82.861,338.102 81.908 C 331.819 78.546,325.167 63.365,324.504 50.877 C 324.027 41.895,324.390 41.199,330.933 38.540 C 340.216 34.767,353.333 24.337,353.333 20.728 C 353.333 15.589,326.039 10.873,313.460 13.838 C 303.702 16.139,303.311 17.118,312.400 16.495 C 325.992 15.563,335.238 18.782,335.238 24.446 C 335.238 28.975,322.628 35.195,303.593 40.055 C 281.147 45.786,256.877 64.207,240.028 88.302 C 232.984 98.375,233.766 98.373,226.014 88.327 C 217.352 77.101,206.807 52.587,206.363 42.646 L 206.190 38.782 214.762 36.650 C 234.911 31.640,252.544 23.863,261.149 16.194 C 266.297 11.605,271.192 5.160,270.246 4.214 C 268.094 2.062,236.485 -0.667,228.095 0.575 M200.386 46.905 C 201.355 50.702,203.847 58.524,205.925 64.286 C 211.781 80.525,210.916 82.757,191.160 102.384 C 178.366 115.094,167.744 127.812,159.510 140.280 C 156.630 144.640,155.635 145.539,154.766 144.565 C 146.300 135.078,143.621 130.265,144.613 126.328 C 145.159 124.157,145.892 121.095,146.240 119.524 C 146.588 117.952,147.191 107.667,147.580 96.667 C 148.380 74.060,149.230 70.537,156.073 61.473 C 163.131 52.125,185.276 40.715,197.646 40.052 C 198.185 40.024,199.418 43.107,200.386 46.905 M322.540 52.621 C 322.684 62.365,324.183 70.553,327.030 77.159 C 327.488 78.221,323.650 81.567,312.530 89.801 C 300.956 98.371,293.808 104.657,282.062 116.594 C 273.395 125.402,267.391 130.886,268.266 129.194 C 269.118 127.547,272.388 123.519,275.534 120.242 L 281.254 114.286 275.151 114.272 C 264.346 114.247,248.687 109.047,240.952 102.915 L 238.571 101.027 241.429 95.516 C 255.178 68.993,282.488 48.699,311.581 43.387 C 323.417 41.226,322.358 40.333,322.540 52.621 M327.619 97.124 C 327.619 104.842,331.883 113.445,340.171 122.450 L 343.741 126.329 331.156 132.614 C 309.267 143.545,295.708 152.803,282.143 166.078 C 276.279 171.817,274.287 173.290,274.289 171.884 C 274.295 169.024,277.791 163.894,280.966 162.087 C 283.688 160.539,284.688 159.048,283.005 159.048 C 277.753 159.048,266.352 147.156,265.401 140.685 C 264.196 132.482,302.867 100.802,322.770 93.687 C 327.659 91.940,327.619 91.911,327.619 97.124 M223.290 98.569 C 227.352 104.468,237.632 114.457,241.924 116.677 C 245.695 118.627,245.580 118.988,239.794 123.376 C 223.544 135.699,199.589 164.788,189.046 184.998 C 185.468 191.856,185.994 192.022,180.004 182.143 C 177.226 177.560,171.360 168.519,166.970 162.054 L 158.987 150.298 164.412 142.763 C 177.165 125.051,193.935 108.689,210.360 97.934 C 219.079 92.226,218.915 92.218,223.290 98.569 M255.238 137.926 C 255.238 144.437,257.624 150.626,262.094 155.703 C 264.214 158.112,265.789 160.203,265.594 160.350 C 265.398 160.497,262.667 162.037,259.524 163.771 C 243.210 172.774,223.244 188.159,207.870 203.572 L 197.168 214.301 192.327 204.654 L 187.486 195.007 191.958 187.741 C 205.776 165.295,223.583 148.444,244.673 137.857 C 255.687 132.329,255.238 132.326,255.238 137.926 M343.810 141.308 C 343.810 141.503,342.876 143.753,341.735 146.308 C 339.190 152.005,339.064 161.451,341.437 168.597 C 343.393 174.486,344.776 173.456,330.000 177.113 C 311.574 181.673,294.446 188.450,284.048 195.293 C 281.623 196.889,280.952 197.028,280.952 195.936 C 280.952 195.169,279.515 190.206,277.758 184.907 L 274.563 175.273 280.377 169.729 C 294.533 156.229,313.830 146.050,331.219 142.911 C 340.827 141.176,343.810 140.796,343.810 141.308 M57.522 145.333 C 59.309 146.018,62.385 150.937,63.202 154.414 C 63.730 156.665,63.108 157.421,57.153 161.766 C 24.435 185.637,33.568 226.727,83.420 279.946 L 90.952 287.987 85.238 284.763 C 25.119 250.850,-2.423 214.387,8.533 183.214 C 15.828 162.458,44.458 140.320,57.522 145.333 M142.143 156.993 C 144.631 158.862,146.667 160.491,146.667 160.612 C 146.667 160.733,144.487 165.162,141.824 170.454 C 139.160 175.746,136.053 182.356,134.919 185.143 L 132.857 190.211 132.857 170.392 L 132.857 150.573 135.238 152.084 C 136.548 152.915,139.655 155.125,142.143 156.993 M157.468 170.714 C 163.729 177.363,172.045 187.443,177.508 195.007 L 181.125 200.013 178.047 207.388 C 169.814 227.119,160.683 262.271,161.055 272.803 C 161.112 274.404,161.741 272.518,162.454 268.611 C 166.507 246.382,180.072 204.762,183.263 204.762 C 184.042 204.762,191.429 219.029,191.429 220.532 C 191.429 221.398,190.198 223.669,188.693 225.577 C 179.377 237.399,168.253 257.998,163.485 272.260 C 161.974 276.778,160.974 278.645,160.679 277.498 C 160.425 276.509,160.170 277.200,160.108 279.048 C 160.045 280.881,159.117 286.881,158.045 292.381 C 156.973 297.881,155.926 306.667,155.717 311.905 C 155.363 320.817,155.390 320.991,156.135 314.621 C 159.741 283.787,170.775 255.956,188.834 232.141 C 194.498 224.670,194.197 224.547,197.965 235.883 C 208.271 266.891,204.561 291.499,186.890 309.336 C 174.251 322.093,160.760 331.056,148.894 334.578 L 143.978 336.038 140.043 330.427 C 114.995 294.719,116.277 230.424,143.085 177.857 C 150.821 162.686,150.199 162.995,157.468 170.714 M264.194 186.737 C 280.492 237.266,255.930 286.947,212.039 292.231 C 204.332 293.159,204.287 293.108,206.697 286.101 C 211.978 270.754,211.023 252.891,203.777 231.447 L 199.833 219.775 203.488 215.984 C 215.218 203.817,253.638 179.190,261.095 179.059 C 261.435 179.053,262.830 182.508,264.194 186.737 M292.419 266.064 C 294.232 266.934,297.410 269.080,299.482 270.834 L 303.249 274.021 300.522 277.249 C 287.160 293.065,288.826 320.549,304.017 334.892 C 308.813 339.419,319.921 346.667,322.065 346.667 C 322.621 346.667,320.461 349.462,317.265 352.878 C 314.070 356.294,309.689 362.306,307.531 366.239 C 298.361 382.948,282.867 379.345,267.539 356.941 C 252.038 334.282,236.535 325.084,201.544 317.783 L 191.182 315.621 196.930 310.420 C 204.597 303.481,213.422 298.389,219.919 297.154 C 246.396 292.121,255.406 287.840,267.158 274.710 C 276.792 263.946,283.338 261.706,292.419 266.064 M111.697 290.805 C 115.953 292.584,116.935 294.049,119.094 301.841 C 122.509 314.165,132.169 331.189,139.903 338.512 C 142.679 341.140,142.857 341.726,142.857 348.224 C 142.857 359.993,148.903 375.890,159.251 391.330 C 165.562 400.746,165.678 403.911,160.315 420.139 C 157.445 428.823,157.449 428.821,150.908 423.775 C 131.304 408.651,119.972 384.150,125.661 369.187 C 127.090 365.430,127.023 365.273,123.429 363.974 C 119.092 362.405,117.143 358.125,117.143 350.168 L 117.143 343.957 113.728 342.830 C 103.314 339.393,98.325 328.073,102.307 316.916 L 103.577 313.356 100.122 313.488 C 92.835 313.767,89.524 310.465,89.524 302.919 C 89.524 294.432,102.896 287.126,111.697 290.805 M223.810 328.747 C 238.822 333.469,252.521 356.911,262.015 394.126 C 265.172 406.500,270.503 434.958,270.465 439.235 C 270.459 439.918,266.884 433.391,262.520 424.731 C 233.408 366.954,200.132 335.922,167.381 336.005 C 158.591 336.027,158.511 335.932,165.211 333.425 C 183.204 326.693,210.382 324.524,223.810 328.747 M174.040 339.525 C 200.477 345.759,225.656 370.488,245.156 409.373 C 252.385 423.787,263.425 451.178,262.414 452.189 C 260.852 453.752,245.446 445.165,238.621 438.927 L 233.430 434.183 230.511 439.234 C 226.440 446.277,224.542 453.265,223.835 463.810 L 223.229 472.857 220.677 467.566 C 216.949 459.837,212.859 443.240,208.975 420.081 C 203.415 386.925,198.263 374.310,183.984 358.887 C 175.519 349.743,159.144 340.034,152.107 339.985 C 150.397 339.974,150.269 339.797,151.429 339.048 C 153.590 337.651,167.322 337.941,174.040 339.525 M160.571 344.287 C 188.026 356.429,203.741 388.109,206.161 436.190 C 207.309 458.993,210.475 479.346,214.721 491.216 L 217.012 497.619 212.716 492.857 C 192.469 470.412,173.770 429.327,170.777 400.705 C 170.304 396.189,169.501 394.315,166.232 390.106 C 156.774 377.925,148.571 356.566,148.571 344.117 C 148.571 340.120,151.234 340.158,160.571 344.287 M263.692 361.429 C 265.682 364.571,268.773 369.705,270.560 372.836 C 276.943 384.019,287.263 392.038,296.629 393.094 L 300.704 393.553 301.281 399.073 C 301.598 402.109,303.158 408.653,304.748 413.615 C 311.072 433.359,310.354 449.814,302.590 463.062 C 298.175 470.596,297.391 470.892,291.396 467.293 C 282.049 461.680,277.867 451.800,273.214 424.340 C 267.922 393.112,261.226 370.241,252.146 352.384 L 247.544 343.333 253.809 349.524 C 257.255 352.929,261.702 358.286,263.692 361.429 " stroke="none" fill="#000000" fill-rule="evenodd"></path></g></svg>