<svg id="svg" xmlns="http://www.w3.org/2000/svg" xmlns:xlink="http://www.w3.org/1999/xlink" width="400" height="385.8333333333333" viewBox="0, 0, 400,385.8333333333333"><g id="svgg"><path id="path0" d="M368.056 4.583 C 373.498 37.250,354.656 65.840,285.000 130.606 C 230.788 181.012,210.490 209.427,202.481 246.123 C 200.290 256.163,200.484 258.598,202.856 250.833 C 213.402 216.315,232.780 191.490,286.667 143.465 C 349.490 87.476,372.757 55.461,372.881 24.834 C 372.922 14.590,373.134 14.546,376.134 24.167 C 389.948 68.472,380.655 86.269,320.000 131.656 C 293.163 151.738,285.797 157.733,272.500 170.317 C 266.139 176.336,256.059 187.012,258.333 185.320 C 259.021 184.809,262.771 181.957,266.667 178.984 C 276.150 171.746,292.587 160.616,318.695 143.756 C 360.056 117.044,375.241 103.736,384.953 85.687 C 397.814 61.785,392.919 33.050,371.277 5.417 L 367.362 0.417 368.056 4.583 M28.916 5.163 C 7.942 30.777,2.395 61.770,14.633 84.962 C 24.714 104.065,41.046 118.108,88.333 148.329 C 105.628 159.382,119.830 169.014,129.781 176.442 C 135.167 180.461,140.326 184.300,141.245 184.971 C 144.692 187.489,133.785 175.953,125.595 168.419 C 113.740 157.511,103.402 149.154,81.667 132.907 C 19.119 86.152,9.556 67.937,24.252 23.542 C 27.357 14.163,27.076 14.041,27.119 24.792 C 27.242 55.165,51.073 87.962,113.333 143.440 C 165.823 190.212,185.557 215.169,196.607 248.750 C 199.480 257.481,199.855 256.380,197.531 246.033 C 189.112 208.537,170.060 181.928,114.583 130.181 C 46.710 66.871,25.588 35.373,31.748 6.650 C 32.942 1.082,32.463 0.830,28.916 5.163 M97.824 72.030 C 92.460 73.243,87.639 75.465,84.167 78.326 L 82.083 80.043 84.583 79.521 C 85.958 79.234,88.583 78.609,90.417 78.131 C 127.442 68.483,169.001 104.665,187.804 162.917 C 193.942 181.934,199.167 209.770,199.167 223.461 C 199.167 230.936,200.585 228.256,201.123 219.764 C 206.683 132.105,259.149 65.366,312.076 78.624 C 318.348 80.195,318.511 79.993,313.594 76.737 C 295.733 64.906,267.695 72.665,245.000 95.720 C 221.062 120.037,203.796 161.941,201.099 202.264 C 200.452 211.948,199.580 211.543,198.854 201.221 C 193.696 127.838,142.203 61.993,97.824 72.030 M7.659 86.875 C 4.275 95.580,3.813 97.984,3.856 106.667 C 4.022 139.690,25.454 156.963,106.250 189.190 C 153.706 208.118,173.509 219.932,186.536 237.083 C 187.607 238.494,187.050 236.969,185.259 233.587 C 174.566 213.394,151.677 197.390,100.833 174.559 C 50.788 152.085,38.410 145.057,24.560 131.250 C 12.538 119.266,8.778 109.689,9.291 92.361 C 9.452 86.938,9.533 82.500,9.472 82.500 C 9.410 82.500,8.595 84.469,7.659 86.875 M390.693 92.337 C 391.587 124.704,373.654 141.690,308.209 170.466 C 250.103 196.015,223.759 214.180,213.411 235.833 L 211.619 239.583 213.889 236.667 C 228.334 218.107,246.378 207.824,305.417 184.507 C 362.982 161.772,385.128 146.083,393.947 121.789 C 397.855 111.022,397.197 97.420,392.234 86.372 L 390.417 82.328 390.693 92.337 M1.788 129.583 C -7.608 165.199,13.867 183.438,86.667 201.674 C 133.134 213.314,157.606 222.491,176.794 235.473 C 185.300 241.227,182.298 237.511,171.667 229.123 C 151.805 213.455,131.049 204.411,82.765 190.387 C 18.490 171.719,5.788 162.474,3.454 132.661 L 2.887 125.417 1.788 129.583 M396.735 130.417 C 396.144 160.882,381.620 171.839,317.224 190.399 C 265.453 205.321,241.067 216.633,222.083 234.533 L 216.250 240.034 223.211 235.397 C 243.289 222.023,262.877 214.696,313.461 201.642 C 353.321 191.355,367.813 186.035,380.515 177.023 C 396.933 165.375,403.764 146.734,398.051 129.167 L 396.831 125.417 396.735 130.417 M4.659 167.378 C 3.288 169.596,3.200 181.427,4.514 187.003 C 10.247 211.342,28.926 219.958,95.000 228.739 C 103.938 229.927,116.739 231.822,123.447 232.949 C 137.388 235.293,138.346 235.357,133.750 233.631 C 124.720 230.241,102.283 224.507,80.369 219.990 C 23.973 208.366,11.137 200.714,6.292 175.833 C 5.744 173.020,5.812 173.066,8.206 177.134 C 18.183 194.093,43.287 205.686,104.583 221.642 C 154.790 234.712,170.345 240.408,187.917 252.159 C 191.583 254.611,195.521 257.229,196.667 257.977 C 200.927 260.758,187.697 248.859,182.083 244.862 C 164.529 232.361,144.612 224.375,97.213 210.830 C 34.745 192.978,12.552 182.938,6.709 169.887 C 5.877 168.029,4.954 166.900,4.659 167.378 M393.519 169.376 C 388.803 182.386,367.473 192.167,303.750 210.541 C 246.018 227.187,219.446 239.391,204.167 256.278 C 201.796 258.898,202.010 258.787,211.667 252.392 C 231.054 239.552,246.403 234.118,306.667 218.761 C 354.126 206.666,385.533 191.193,392.076 176.683 C 394.183 172.011,394.510 173.017,392.902 179.223 C 387.087 201.664,374.013 208.967,320.000 219.942 C 294.182 225.189,263.087 233.364,264.307 234.585 C 264.468 234.746,272.658 233.622,282.508 232.087 C 292.358 230.553,307.729 228.299,316.667 227.079 C 370.823 219.687,389.657 210.186,395.540 187.290 C 397.791 178.530,395.990 162.561,393.519 169.376 M19.203 212.187 C 19.002 217.313,25.325 226.414,32.444 231.244 C 46.985 241.111,59.487 243.075,114.583 244.148 C 155.359 244.943,164.360 245.729,176.394 249.551 C 184.015 251.971,183.607 250.962,175.623 247.644 C 159.111 240.782,147.931 239.338,90.560 236.656 C 46.692 234.605,28.494 228.757,20.825 214.248 C 19.953 212.599,19.224 211.672,19.203 212.187 M379.189 214.113 C 373.392 228.109,353.060 234.641,308.968 236.676 C 252.209 239.294,238.694 241.119,222.846 248.305 C 215.760 251.518,216.176 252.100,223.750 249.568 C 235.084 245.778,244.516 244.947,285.000 244.171 C 352.702 242.873,371.874 237.386,379.627 217.086 C 381.254 212.825,380.852 210.097,379.189 214.113 M39.167 239.439 C 39.167 241.400,43.863 247.944,47.512 251.067 C 58.487 260.461,76.363 261.435,120.000 255.015 C 137.278 252.473,146.745 251.484,154.740 251.385 C 166.798 251.237,166.885 250.746,155.137 249.140 C 145.664 247.846,128.739 248.418,105.870 250.807 C 68.714 254.687,52.118 252.421,42.675 242.177 C 40.745 240.083,39.167 238.851,39.167 239.439 M357.029 242.587 C 347.494 252.445,330.782 254.630,294.130 250.811 C 271.238 248.425,255.349 247.874,245.440 249.121 C 233.013 250.685,233.066 251.254,245.650 251.417 C 253.344 251.517,262.671 252.389,274.167 254.082 C 326.447 261.783,341.420 261.080,353.275 250.370 C 356.617 247.351,361.429 240.318,360.672 239.561 C 360.472 239.361,358.833 240.723,357.029 242.587 M180.395 259.273 C 163.276 260.812,146.447 268.298,107.500 291.699 C 63.798 317.957,48.704 323.585,34.975 318.741 C 30.189 317.053,29.894 317.724,34.310 320.251 C 46.307 327.117,61.238 325.266,83.318 314.178 C 91.559 310.039,97.833 306.264,127.917 287.340 C 157.960 268.442,171.916 262.300,189.673 260.160 L 195.417 259.467 190.812 259.109 C 188.279 258.911,183.592 258.985,180.395 259.273 M208.750 259.238 C 204.707 259.723,204.682 259.742,207.917 259.880 C 225.296 260.620,241.491 267.995,282.083 293.655 C 328.912 323.257,348.984 329.826,364.873 320.752 C 370.047 317.797,370.112 316.946,365.025 318.741 C 351.261 323.597,336.112 317.932,292.222 291.513 C 247.755 264.747,227.646 256.971,208.750 259.238 M197.975 263.899 C 197.553 264.999,197.247 265.105,196.760 264.318 C 196.305 263.582,194.373 265.094,190.340 269.341 C 179.912 280.321,173.040 292.182,162.921 316.667 C 152.500 341.879,151.169 344.965,146.222 355.368 C 138.160 372.325,132.024 380.446,125.543 382.740 L 122.917 383.670 126.250 384.687 C 134.900 387.329,144.239 384.891,151.394 378.123 C 159.138 370.799,163.856 359.715,172.409 328.750 C 174.688 320.500,177.289 311.406,178.189 308.542 C 183.546 291.491,172.698 316.581,164.588 340.000 C 153.680 371.495,144.391 383.336,130.594 383.333 L 127.917 383.332 131.356 381.630 C 143.140 375.797,153.329 357.958,169.178 315.417 C 177.664 292.638,184.484 279.045,192.141 269.645 C 196.823 263.897,197.275 264.049,194.657 270.491 C 192.093 276.802,190.447 284.957,188.784 299.583 C 186.497 319.701,183.664 327.733,175.268 337.912 C 170.133 344.138,172.305 344.005,179.352 337.661 C 188.696 329.250,191.667 320.274,193.348 295.372 C 194.373 280.195,195.751 271.305,197.863 266.250 C 198.592 264.505,199.042 262.931,198.864 262.753 C 198.685 262.574,198.285 263.090,197.975 263.899 M203.333 264.032 C 203.333 264.618,202.958 264.867,202.500 264.583 C 201.416 263.913,201.440 264.149,202.880 268.230 C 204.798 273.664,205.714 280.196,206.689 295.381 C 208.423 322.403,213.534 334.660,225.979 341.646 L 229.583 343.669 225.146 338.353 C 216.720 328.261,213.419 319.080,211.265 299.751 C 209.587 284.694,208.099 277.274,205.449 270.752 C 202.803 264.241,203.115 263.922,207.320 268.840 C 215.100 277.943,222.011 291.975,232.925 320.833 C 247.168 358.495,257.344 375.867,268.559 381.665 L 272.083 383.487 267.765 383.040 C 254.019 381.615,246.790 371.924,235.350 339.583 C 229.992 324.436,222.846 306.716,220.826 303.568 C 220.114 302.457,219.976 302.418,220.278 303.413 C 224.276 316.569,226.323 323.596,229.597 335.417 C 240.420 374.493,250.159 387.035,268.527 385.552 C 275.719 384.972,277.886 383.921,274.400 382.706 C 265.340 379.548,256.683 364.688,240.296 324.167 C 228.346 294.616,219.405 278.766,208.818 268.357 C 205.802 265.391,203.333 263.445,203.333 264.032 M176.541 270.328 C 161.720 277.747,149.500 290.853,129.233 321.070 C 105.193 356.911,98.134 363.065,84.983 359.654 C 79.184 358.150,78.932 358.470,83.711 361.271 C 100.229 370.952,113.883 361.150,138.298 322.083 C 159.213 288.618,170.311 275.135,182.083 268.892 C 186.946 266.314,182.002 267.595,176.541 270.328 M217.917 268.901 C 229.451 275.056,239.620 287.077,258.290 316.627 C 273.574 340.819,277.186 345.883,284.263 353.050 C 295.615 364.547,305.754 367.303,315.703 361.598 C 321.110 358.497,320.973 358.109,315.017 359.654 C 302.094 363.006,294.999 356.939,272.055 322.917 C 249.555 289.554,236.416 275.667,221.162 269.129 C 216.609 267.177,214.395 267.022,217.917 268.901 M160.230 274.078 C 145.691 282.728,136.983 291.246,120.741 312.711 C 97.677 343.190,81.917 351.100,59.650 343.371 C 48.650 339.553,31.472 324.523,30.494 317.861 C 30.402 317.230,30.011 316.423,29.627 316.066 C 27.968 314.527,30.257 321.803,33.406 328.081 C 41.597 344.413,55.833 353.347,73.629 353.323 C 94.428 353.296,105.767 345.180,125.423 316.250 C 140.852 293.541,150.350 282.779,162.422 274.323 C 170.197 268.878,169.166 268.762,160.230 274.078 M232.500 270.218 C 232.500 270.405,235.824 273.041,239.887 276.074 C 251.638 284.850,259.235 293.580,273.762 315.000 C 283.886 329.929,291.087 338.709,296.840 343.139 C 320.897 361.666,353.618 354.614,366.645 328.095 C 370.192 320.874,371.877 315.090,370.116 316.178 C 369.579 316.510,369.331 317.092,369.566 317.471 C 371.937 321.308,351.360 339.550,340.350 343.371 C 318.006 351.127,302.960 343.559,279.419 312.723 C 267.618 297.264,255.766 284.749,247.500 279.018 C 241.895 275.132,232.500 269.620,232.500 270.218 M176.847 277.292 C 165.317 288.632,158.222 300.587,147.046 327.500 C 132.753 361.919,127.283 367.769,109.295 367.876 L 102.340 367.917 105.697 369.382 C 126.431 378.432,139.184 367.176,154.562 326.250 C 164.465 299.897,170.250 288.558,180.179 276.042 C 185.641 269.155,184.796 269.472,176.847 277.292 M218.858 274.583 C 228.956 286.812,234.846 298.284,245.563 326.603 C 260.876 367.061,273.744 378.356,294.303 369.382 L 297.660 367.917 290.705 367.876 C 272.874 367.770,266.999 361.544,253.254 328.190 C 241.318 299.227,232.034 284.169,219.939 274.160 L 215.417 270.417 218.858 274.583 " stroke="none" fill="#000000" fill-rule="evenodd"></path></g></svg>