<svg id="svg" xmlns="http://www.w3.org/2000/svg" xmlns:xlink="http://www.w3.org/1999/xlink" width="400" height="322.17391304347825" viewBox="0, 0, 400,322.17391304347825"><g id="svgg"><path id="path0" d="M269.262 18.295 C 262.003 21.888,252.358 37.931,234.125 76.739 C 225.426 95.254,213.396 121.802,213.609 122.015 C 213.686 122.091,216.665 115.848,220.230 108.142 C 243.678 57.457,258.223 32.960,263.635 35.037 C 265.244 35.654,263.133 40.511,259.291 45.036 C 252.416 53.133,251.828 54.457,257.243 49.643 C 271.424 37.036,275.297 28.354,266.554 28.767 C 262.865 28.942,262.821 28.814,265.387 25.329 C 270.500 18.384,277.136 19.406,274.359 26.711 C 273.578 28.764,274.628 27.854,275.799 25.462 C 277.032 22.944,277.265 20.644,276.399 19.545 C 274.612 17.277,272.180 16.851,269.262 18.295 M125.015 19.175 C 123.141 20.821,123.028 22.275,124.525 25.490 C 125.949 28.550,126.453 28.713,125.966 25.956 C 124.667 18.596,131.785 19.635,136.391 27.477 L 137.335 29.084 134.148 28.999 C 125.843 28.775,128.069 35.181,140.442 47.110 C 147.913 54.312,149.248 54.910,144.161 48.773 C 139.089 42.656,138.570 41.938,137.322 39.303 C 135.548 35.559,136.138 34.492,139.253 35.809 C 145.373 38.396,159.928 63.874,181.319 109.442 C 184.037 115.232,186.328 119.904,186.409 119.823 C 186.846 119.386,161.811 66.359,153.957 51.087 C 139.993 23.933,130.951 13.964,125.015 19.175 M340.435 22.632 C 325.496 23.348,315.140 27.750,308.761 36.093 L 307.270 38.043 309.029 38.175 C 309.996 38.248,311.515 38.003,312.403 37.632 C 320.607 34.204,319.546 48.331,310.722 60.003 C 304.639 68.051,287.823 83.043,277.627 89.509 C 271.016 93.702,274.146 89.343,289.140 73.478 C 305.489 56.178,311.013 48.373,309.578 44.600 C 308.535 41.855,304.147 42.512,297.755 46.371 L 294.265 48.478 296.008 48.720 C 302.851 49.668,297.549 60.585,282.083 77.391 C 275.102 84.977,259.035 100.050,258.500 99.515 C 258.406 99.421,260.980 95.138,264.220 89.998 C 275.218 72.548,276.824 66.755,271.562 63.503 C 266.959 60.658,259.151 63.527,252.189 70.622 L 249.812 73.043 252.841 73.049 C 267.964 73.074,266.237 82.343,247.577 101.304 C 238.931 110.090,234.542 115.029,227.294 124.130 C 224.437 127.717,221.536 131.337,220.846 132.174 L 219.592 133.696 220.177 131.957 C 222.599 124.760,226.137 120.070,242.559 102.288 C 252.808 91.191,254.081 89.195,253.827 84.623 C 253.325 75.576,243.568 77.936,236.346 88.851 C 228.385 100.883,216.106 128.704,209.782 149.038 C 207.362 156.817,207.381 156.966,210.307 153.134 C 223.272 136.156,233.967 131.574,258.696 132.403 C 289.505 133.436,303.024 125.345,303.029 105.870 C 303.030 101.304,302.654 100.754,301.116 103.077 C 292.315 116.377,277.763 122.651,250.870 124.741 C 243.247 125.334,238.329 127.184,227.923 133.374 C 222.930 136.344,222.741 136.196,226.370 132.167 C 233.796 123.921,238.470 121.572,252.391 119.089 C 274.548 115.137,287.228 108.228,292.610 97.174 C 295.043 92.178,294.757 92.015,290.567 96.001 C 280.921 105.178,275.205 108.261,267.831 108.261 C 258.003 108.261,263.812 101.662,292.826 79.865 C 314.631 63.484,320.513 58.455,322.557 54.450 C 325.153 49.361,335.114 45.523,345.870 45.468 C 363.744 45.377,355.932 53.286,326.766 64.811 C 309.992 71.440,302.778 78.327,302.322 88.150 L 302.165 91.522 302.811 89.245 C 305.320 80.405,308.943 77.644,323.478 73.496 C 351.676 65.450,360.194 59.796,364.292 46.408 C 366.044 40.684,366.668 27.075,365.057 29.720 C 360.449 37.287,354.038 40.139,341.522 40.187 C 329.414 40.234,324.262 37.962,326.411 33.525 C 327.590 31.089,331.125 29.793,343.136 27.390 C 353.087 25.400,364.317 22.784,364.743 22.358 C 365.025 22.076,348.028 22.267,340.435 22.632 M36.957 23.745 C 39.772 24.630,51.380 27.177,58.478 28.466 C 73.120 31.125,78.318 35.394,71.303 38.998 C 60.739 44.426,40.804 40.416,35.787 31.854 C 34.361 29.422,33.988 29.972,33.946 34.565 C 33.825 47.785,38.975 58.087,48.477 63.632 C 55.056 67.471,60.154 69.334,80.211 75.227 C 91.448 78.528,94.568 81.116,97.235 89.345 L 98.222 92.391 98.241 90.417 C 98.344 80.049,90.315 71.811,74.304 65.853 C 44.748 54.856,35.634 45.585,55.000 46.217 C 65.757 46.568,75.192 50.394,77.733 55.435 C 79.528 58.994,85.605 64.182,103.696 77.599 C 131.120 97.939,138.943 105.156,136.362 107.737 C 134.550 109.549,127.072 108.487,121.300 105.598 C 117.794 103.843,115.488 101.999,109.457 96.127 C 105.829 92.595,105.358 92.694,107.114 96.618 C 112.349 108.319,124.773 115.226,148.023 119.363 C 162.074 121.863,166.089 123.795,173.495 131.619 C 177.502 135.851,177.480 136.491,173.413 134.016 C 162.494 127.372,155.258 124.783,147.610 124.783 C 127.261 124.783,110.061 117.490,99.973 104.584 L 97.609 101.559 97.483 105.869 C 97.168 116.707,101.678 124.392,111.094 129.061 C 117.122 132.050,122.007 132.616,143.043 132.765 C 161.874 132.899,164.406 133.172,169.783 135.650 C 174.955 138.034,182.886 144.446,187.679 150.119 C 192.030 155.269,193.072 156.381,192.864 155.652 C 186.742 134.218,171.727 99.962,163.214 88.006 C 156.206 78.165,147.125 76.306,146.199 84.523 C 145.689 89.051,146.548 90.356,158.641 103.419 C 172.058 117.912,175.712 122.419,178.257 127.609 C 181.472 134.163,181.343 134.577,177.581 129.783 C 168.056 117.645,160.069 108.632,150.224 98.913 C 134.318 83.210,133.015 73.478,146.818 73.478 C 150.685 73.478,150.707 73.322,147.283 70.220 C 139.851 63.486,133.636 61.218,129.136 63.598 C 123.057 66.812,124.464 72.171,136.222 90.605 C 142.810 100.932,142.823 100.983,137.737 96.661 C 118.643 80.438,100.870 59.004,100.870 52.200 C 100.870 50.225,103.186 48.591,104.999 49.287 C 106.785 49.973,105.283 48.639,102.429 47.007 C 94.524 42.484,90.150 42.280,90.316 46.442 C 90.501 51.076,96.039 58.360,112.195 75.217 C 126.506 90.150,129.411 94.292,122.452 89.840 C 110.993 82.510,93.397 66.591,87.915 58.593 C 80.472 47.737,80.012 35.079,87.168 38.069 C 88.070 38.446,89.658 38.683,90.790 38.609 L 92.806 38.478 89.777 35.272 C 84.788 29.990,78.802 26.518,71.660 24.766 C 65.291 23.203,32.131 22.227,36.957 23.745 M372.005 33.152 C 369.678 61.575,365.099 66.122,329.389 75.476 C 312.576 79.880,309.706 81.803,307.058 90.435 C 305.138 96.695,305.322 97.639,307.665 93.553 C 313.252 83.812,318.437 80.870,330.011 80.870 C 342.526 80.870,347.783 83.569,343.895 87.998 C 339.996 92.439,331.709 94.360,324.941 92.393 C 321.775 91.472,321.704 91.671,324.352 94.052 C 337.521 105.892,361.842 91.727,369.943 67.500 C 373.301 57.456,375.298 35.148,373.270 30.326 C 372.644 28.836,372.295 29.615,372.005 33.152 M26.669 30.971 C 26.478 31.274,26.247 34.974,26.157 39.194 C 25.822 54.775,28.914 68.750,34.989 79.112 C 45.013 96.210,65.684 104.125,75.846 94.758 C 78.288 92.507,78.226 92.422,74.737 93.245 C 67.543 94.940,60.061 93.081,56.354 88.675 C 53.222 84.954,56.570 82.460,65.816 81.625 C 79.393 80.401,86.336 83.557,92.367 93.696 L 94.437 97.174 94.191 95.168 C 92.832 84.052,88.817 80.803,70.652 76.119 C 47.364 70.113,44.206 68.884,38.075 63.433 C 32.568 58.538,29.145 48.752,28.011 34.662 C 27.708 30.892,27.347 29.898,26.669 30.971 M353.043 97.243 C 317.103 124.455,311.567 128.263,298.261 134.930 C 285.951 141.097,278.415 144.017,258.913 150.174 L 255.435 151.273 259.565 151.043 C 280.721 149.870,298.006 144.706,323.503 131.944 C 341.647 122.861,348.577 117.871,352.671 110.940 C 355.671 105.861,362.609 91.658,362.609 90.596 C 362.609 90.093,361.129 91.121,353.043 97.243 M37.391 91.121 C 37.391 91.818,45.750 108.519,47.782 111.884 C 51.966 118.810,59.332 123.978,77.965 133.058 C 102.899 145.208,120.235 150.360,138.696 151.106 L 144.565 151.343 138.043 149.397 C 122.374 144.720,106.364 138.200,95.150 131.928 C 86.454 127.064,83.109 124.716,53.696 102.836 C 37.809 91.018,37.391 90.718,37.391 91.121 M186.993 121.522 C 186.993 121.761,187.368 122.641,187.826 123.478 C 188.284 124.315,188.659 124.804,188.659 124.565 C 188.659 124.326,188.284 123.446,187.826 122.609 C 187.368 121.772,186.993 121.283,186.993 121.522 M212.034 125.020 C 211.013 127.162,211.157 127.527,212.225 125.502 C 212.710 124.583,213.029 123.754,212.935 123.660 C 212.841 123.566,212.436 124.178,212.034 125.020 M341.488 127.522 C 331.316 136.047,307.685 146.841,289.348 151.338 C 271.472 155.722,246.922 156.295,225.392 152.830 C 220.311 152.013,219.757 152.230,223.762 153.469 C 259.344 164.482,302.760 167.388,317.865 159.768 C 322.775 157.291,331.073 147.160,339.086 133.861 C 343.891 125.885,344.100 125.333,341.488 127.522 M58.303 129.457 C 65.185 141.658,74.599 154.318,79.864 158.450 C 91.985 167.963,133.366 166.304,173.002 154.715 C 180.204 152.610,182.767 151.305,177.155 152.601 C 163.947 155.653,137.492 156.140,120.435 153.646 C 101.224 150.837,66.001 136.177,58.520 127.876 C 56.987 126.175,56.882 126.938,58.303 129.457 M199.524 144.939 C 197.125 146.135,195.816 149.666,197.283 150.983 C 199.090 152.605,204.434 152.219,205.003 150.425 C 205.918 147.543,202.056 143.677,199.524 144.939 M199.078 153.916 C 195.707 155.886,195.538 162.456,198.627 171.436 C 199.944 175.262,199.944 175.263,199.124 176.653 C 195.150 183.397,195.379 201.696,199.827 232.823 C 201.505 244.567,201.634 244.385,203.660 227.388 C 205.600 211.109,205.851 207.686,205.860 197.391 C 205.870 186.304,205.438 182.538,203.627 177.948 L 202.559 175.244 203.851 171.209 C 205.451 166.212,206.119 161.649,205.626 159.093 C 205.422 158.037,205.247 157.034,205.236 156.863 C 205.109 154.773,200.987 152.801,199.078 153.916 M221.439 160.021 C 215.890 161.117,216.682 162.802,222.949 163.232 C 242.082 164.544,254.727 171.010,269.447 187.009 C 279.651 198.100,281.939 198.509,292.033 191.045 C 296.567 187.691,299.189 185.209,302.265 181.357 C 311.649 169.605,307.308 166.665,294.331 175.983 C 285.988 181.974,279.281 183.608,274.031 180.930 C 268.001 177.853,269.920 170.000,276.703 170.000 C 279.184 170.000,280.941 170.838,283.370 173.181 C 285.449 175.187,285.759 174.734,284.708 171.225 C 283.183 166.137,277.618 165.599,268.197 169.629 C 263.190 171.770,261.795 171.606,251.931 167.709 C 235.141 161.076,226.775 158.967,221.439 160.021 M169.565 160.875 C 164.590 161.966,155.964 164.928,148.043 168.265 C 139.679 171.789,137.847 171.994,132.646 169.988 C 121.435 165.665,115.652 166.934,115.652 173.718 L 115.652 175.297 117.537 173.358 C 123.353 167.373,133.857 172.240,129.632 178.962 C 126.111 184.563,116.836 183.609,106.537 176.586 C 98.993 171.442,94.585 169.746,93.554 171.589 C 91.402 175.434,105.299 190.922,115.000 195.490 C 120.143 197.911,122.310 196.824,131.468 187.229 C 145.998 172.006,157.651 165.336,172.229 163.898 C 182.915 162.843,182.826 162.858,182.826 162.174 C 182.826 160.044,176.280 159.403,169.565 160.875 M215.044 178.794 C 221.862 198.893,222.846 215.700,217.086 213.666 C 214.811 212.863,213.889 210.101,214.199 205.025 C 214.505 200.033,213.720 195.387,211.921 191.532 L 210.901 189.348 211.211 192.609 C 211.780 198.580,211.500 205.606,210.460 211.522 C 208.024 225.369,211.670 238.296,220.386 246.711 C 222.664 248.910,222.788 248.706,221.985 244.072 C 221.038 238.606,220.009 228.994,220.004 225.572 C 219.991 216.328,223.163 219.527,230.216 235.870 C 242.346 263.977,256.846 282.174,267.114 282.174 C 275.717 282.174,274.648 270.463,264.635 255.014 L 262.672 251.985 263.749 250.232 C 276.227 229.916,276.977 209.237,265.652 197.812 C 258.943 191.044,241.729 181.073,230.459 177.427 C 223.698 175.239,223.698 175.239,229.972 179.294 C 244.417 188.632,254.614 197.939,257.662 204.569 C 261.435 212.775,258.926 226.957,253.701 226.957 C 250.952 226.957,249.316 224.757,242.379 211.739 C 232.487 193.173,228.207 186.557,221.988 180.217 C 217.001 175.133,216.985 175.185,221.454 182.005 C 227.270 190.883,230.915 199.313,233.934 210.870 C 236.781 221.766,243.275 234.537,253.833 250.000 C 260.192 259.314,262.398 265.587,260.905 270.110 C 259.933 273.054,258.776 272.727,254.781 268.380 C 241.131 253.526,231.647 234.687,227.395 213.980 C 224.668 200.701,220.670 188.121,216.251 178.918 C 213.606 173.407,213.203 173.366,215.044 178.794 M184.525 178.928 C 179.866 188.898,176.446 199.905,173.464 214.525 C 169.600 233.467,162.358 248.964,150.385 263.910 C 143.784 272.150,141.914 273.470,140.530 270.870 C 138.561 267.168,140.939 259.734,146.927 250.871 C 158.804 233.292,163.892 222.813,167.825 207.832 C 170.410 197.984,173.883 190.425,180.714 179.783 L 183.504 175.435 178.905 180.159 C 172.538 186.700,168.808 192.500,159.014 211.087 C 151.183 225.951,150.432 226.957,147.173 226.957 C 141.218 226.957,139.329 211.465,144.255 203.032 C 147.805 196.954,157.508 188.281,170.113 179.919 C 173.403 177.736,176.040 175.895,175.973 175.828 C 175.703 175.558,164.049 179.703,161.570 180.951 C 145.126 189.225,133.704 197.835,130.510 204.364 C 124.522 216.604,126.870 232.421,137.383 250.662 L 138.391 252.411 136.189 255.925 C 127.570 269.677,125.837 279.609,131.633 282.031 C 140.981 285.937,157.087 267.633,169.574 238.913 C 176.075 223.960,177.976 220.435,179.540 220.435 C 181.286 220.435,181.289 228.863,179.546 241.224 C 178.504 248.613,178.560 248.967,180.477 247.142 C 189.291 238.757,193.003 225.300,190.366 211.289 C 189.387 206.083,189.054 197.131,189.647 191.957 L 189.946 189.348 188.946 191.522 C 187.059 195.623,186.452 199.163,186.601 205.174 C 186.754 211.318,185.776 213.913,183.306 213.913 C 178.094 213.913,179.391 196.870,186.066 177.646 C 187.467 173.611,186.719 174.233,184.525 178.928 " stroke="none" fill="#000000" fill-rule="evenodd"></path></g></svg>