<svg id="svg" xmlns="http://www.w3.org/2000/svg" xmlns:xlink="http://www.w3.org/1999/xlink" width="400" height="462.7118644067796" viewBox="0, 0, 400,462.7118644067796"><g id="svgg"><path id="path0" d="M169.625 34.888 C 169.732 44.440,168.458 50.377,162.744 66.949 C 144.649 119.437,142.128 139.520,152.352 149.744 C 158.653 156.046,159.841 155.262,157.249 146.515 C 152.672 131.066,154.730 106.127,162.558 82.187 C 170.702 57.281,172.050 54.963,173.730 62.968 C 174.385 66.090,176.370 73.220,178.140 78.814 C 187.113 107.164,184.086 131.331,169.551 147.392 C 159.159 158.875,160.702 165.498,172.399 159.613 C 205.481 142.969,244.645 157.319,267.940 194.619 C 271.825 200.841,278.774 210.318,283.382 215.678 C 292.353 226.115,291.433 227.937,280.017 222.342 C 270.460 217.658,235.496 208.364,227.764 208.453 C 226.721 208.465,219.856 205.052,212.510 200.870 C 199.545 193.488,191.322 187.513,175.520 173.993 C 165.265 165.218,163.139 166.686,169.878 177.888 C 180.289 195.194,200.414 206.201,233.503 212.687 C 267.324 219.317,269.173 219.900,290.114 230.549 L 309.888 240.606 298.473 228.984 C 288.856 219.194,281.883 209.526,263.510 180.508 C 252.116 162.513,221.073 145.664,195.763 143.737 C 190.109 143.306,189.055 142.657,189.414 139.831 C 189.651 137.966,190.312 132.963,190.883 128.712 C 191.933 120.896,188.370 97.868,183.818 83.051 C 181.255 74.707,177.356 56.894,173.886 37.666 C 170.955 21.428,169.464 20.456,169.625 34.888 M104.661 88.271 C 99.618 91.208,102.734 101.695,108.649 101.695 C 111.411 101.695,112.505 96.330,110.423 92.996 C 108.770 90.349,108.942 89.831,111.473 89.831 C 116.955 89.831,121.719 94.787,124.613 103.501 C 126.181 108.221,127.765 111.783,128.134 111.414 C 129.953 109.595,122.803 94.437,118.363 90.701 C 112.944 86.142,109.397 85.513,104.661 88.271 M130.693 135.479 C 127.106 137.696,129.129 144.840,133.520 145.463 C 135.643 145.764,137.201 146.908,136.983 148.005 C 135.528 155.306,147.244 173.810,156.944 179.533 C 165.111 184.352,166.038 184.021,164.909 176.695 C 162.996 164.291,156.121 155.323,143.623 148.933 C 138.252 146.187,137.407 145.033,138.263 141.620 C 139.404 137.074,134.521 133.113,130.693 135.479 M171.858 192.797 C 172.009 195.360,173.564 199.746,175.314 202.542 C 177.064 205.339,180.166 210.297,182.208 213.559 C 184.251 216.822,188.807 224.831,192.334 231.356 C 212.606 268.861,228.387 291.525,234.230 291.525 C 235.158 291.525,237.942 292.964,240.416 294.721 C 246.074 298.741,257.627 303.622,257.627 301.994 C 257.627 301.321,254.946 299.327,251.668 297.562 C 235.598 288.908,204.992 250.330,186.368 215.254 C 184.141 211.059,180.828 205.914,179.006 203.820 C 175.731 200.057,175.654 197.387,178.887 199.668 C 179.806 200.317,185.100 206.186,190.651 212.712 C 196.203 219.237,207.281 231.822,215.270 240.678 C 246.720 275.542,266.760 301.758,262.937 303.032 C 261.600 303.478,262.798 305.018,265.992 306.961 C 271.131 310.086,282.389 325.930,289.625 340.221 C 293.319 347.517,295.692 360.606,298.005 386.441 L 299.294 400.847 301.342 389.692 C 304.361 373.244,303.917 356.276,300.188 345.604 C 294.786 330.147,287.648 314.930,283.990 311.076 C 280.096 306.973,271.507 297.207,257.652 281.128 C 252.539 275.194,243.005 264.658,236.466 257.714 C 229.927 250.770,226.654 246.389,229.193 247.978 C 237.038 252.888,251.824 255.881,263.237 254.870 C 276.313 253.711,277.942 252.542,266.481 252.542 C 245.778 252.542,219.028 236.128,189.364 205.222 C 170.968 186.056,171.482 186.421,171.858 192.797 " stroke="none" fill="#000000" fill-rule="evenodd"></path></g></svg>