<svg id="svg" version="1.1" xmlns="http://www.w3.org/2000/svg" xmlns:xlink="http://www.w3.org/1999/xlink" width="400" height="432.6666666666667" viewBox="0, 0, 400,432.6666666666667"><g id="svgg"><path id="path0" d="M360.333 44.988 C 354.117 47.099,348.786 48.685,345.667 49.349 C 343.833 49.739,339.912 50.946,336.952 52.029 C 333.992 53.113,331.103 54.000,330.533 54.000 C 329.963 54.000,329.118 54.457,328.654 55.015 C 328.157 55.614,327.291 55.865,326.541 55.627 C 325.841 55.405,324.909 55.501,324.468 55.841 C 324.027 56.180,320.217 57.594,316.000 58.982 C 311.783 60.370,308.033 61.738,307.667 62.021 C 306.909 62.607,294.946 67.333,294.222 67.333 C 293.295 67.333,249.353 89.144,248.667 89.944 C 248.113 90.590,245.396 92.000,244.705 92.000 C 244.350 92.000,242.921 92.775,241.530 93.722 C 240.138 94.669,237.743 96.018,236.207 96.720 C 234.671 97.422,233.243 98.274,233.033 98.614 C 232.823 98.953,231.786 99.421,230.728 99.653 C 229.670 99.885,228.277 100.659,227.632 101.371 C 226.988 102.084,226.082 102.667,225.619 102.667 C 225.156 102.667,224.678 102.892,224.556 103.167 C 224.433 103.442,222.608 104.556,220.500 105.643 C 218.392 106.730,216.667 107.820,216.667 108.064 C 216.667 108.308,215.092 109.311,213.167 110.292 C 209.263 112.283,206.000 114.885,206.000 116.007 C 206.000 116.413,205.711 116.567,205.358 116.348 C 205.004 116.130,204.104 116.562,203.358 117.309 C 202.611 118.056,201.568 118.667,201.039 118.667 C 200.511 118.667,199.903 118.952,199.687 119.300 C 199.472 119.648,197.429 121.335,195.148 123.049 C 192.867 124.763,190.250 126.890,189.333 127.776 C 188.417 128.662,185.717 130.919,183.333 132.791 C 180.950 134.664,178.700 136.554,178.333 136.992 C 177.967 137.429,175.830 139.314,173.584 141.181 C 165.999 147.487,157.330 156.368,150.333 165.000 C 149.233 166.357,147.997 167.827,147.586 168.267 C 147.176 168.706,146.376 169.961,145.810 171.056 C 145.244 172.151,144.062 173.431,143.185 173.901 C 142.307 174.371,141.043 175.768,140.377 177.006 C 139.710 178.244,138.129 180.387,136.864 181.769 C 135.599 183.150,134.284 184.803,133.941 185.443 C 133.599 186.082,131.891 188.494,130.146 190.803 C 126.944 195.039,122.013 203.909,121.985 205.482 C 121.977 205.950,121.084 208.133,120.000 210.333 C 118.916 212.533,118.023 214.689,118.015 215.123 C 118.007 215.558,117.654 216.758,117.231 217.790 C 116.808 218.822,116.379 219.967,116.278 220.333 C 116.178 220.700,115.467 222.738,114.698 224.862 C 112.665 230.485,110.344 239.114,109.642 243.667 C 109.472 244.767,109.176 246.086,108.983 246.599 C 108.791 247.111,108.327 252.061,107.953 257.599 C 107.579 263.136,107.160 268.417,107.023 269.333 C 106.885 270.250,106.420 273.700,105.988 277.000 C 105.556 280.300,104.991 283.300,104.733 283.667 C 104.475 284.033,104.192 285.383,104.104 286.667 C 104.016 287.950,103.662 290.500,103.319 292.333 C 102.975 294.167,102.568 298.330,102.414 301.586 C 102.239 305.271,101.824 307.696,101.315 308.012 C 100.864 308.290,100.693 308.837,100.935 309.228 C 102.082 311.085,94.910 322.519,90.347 326.109 C 89.408 326.847,88.165 328.370,87.584 329.493 C 87.003 330.616,83.764 334.264,80.386 337.601 C 77.008 340.937,73.705 344.492,73.046 345.500 C 72.386 346.508,71.440 347.333,70.943 347.333 C 70.446 347.333,69.375 348.233,68.561 349.333 C 67.748 350.433,66.818 351.333,66.494 351.333 C 66.170 351.333,65.513 351.708,65.034 352.167 C 64.555 352.625,63.486 353.450,62.659 354.000 C 61.831 354.550,60.670 355.462,60.077 356.027 C 57.616 358.373,50.859 363.882,49.000 365.058 C 47.900 365.753,46.418 366.850,45.708 367.495 C 44.997 368.139,44.022 368.667,43.541 368.667 C 43.060 368.667,42.667 368.935,42.667 369.263 C 42.667 369.590,41.335 370.565,39.707 371.429 C 34.678 374.098,27.756 380.256,28.214 381.653 C 28.799 383.434,31.301 382.487,35.679 378.830 C 38.239 376.692,41.833 374.075,43.667 373.016 C 57.938 364.771,88.640 336.104,101.333 319.172 C 105.847 313.150,106.558 312.647,112.786 311.061 C 114.868 310.531,117.173 309.776,117.909 309.382 C 118.644 308.989,120.241 308.667,121.456 308.667 C 122.672 308.667,125.767 308.206,128.334 307.643 C 130.900 307.080,133.832 306.493,134.849 306.339 C 135.866 306.185,136.916 305.925,137.182 305.761 C 137.449 305.597,139.434 305.275,141.595 305.045 C 143.756 304.816,145.706 304.515,145.928 304.378 C 146.734 303.881,158.726 302.000,161.090 302.000 C 162.422 302.000,164.747 301.674,166.256 301.275 C 176.999 298.438,185.406 295.474,194.000 291.493 C 196.750 290.219,200.050 288.795,201.333 288.328 C 202.617 287.862,205.210 286.697,207.097 285.740 C 208.983 284.783,210.858 284.000,211.263 284.000 C 211.669 284.000,212.000 283.720,212.000 283.378 C 212.000 283.036,212.646 282.552,213.435 282.301 C 214.224 282.051,216.249 281.041,217.935 280.057 C 219.621 279.073,222.050 277.843,223.333 277.324 C 224.617 276.805,226.867 275.589,228.333 274.623 C 232.159 272.102,239.911 268.004,242.841 266.953 C 244.220 266.459,246.674 265.142,248.294 264.027 C 249.914 262.912,251.446 262.000,251.697 262.000 C 251.949 262.000,253.585 260.950,255.333 259.667 C 257.082 258.383,258.800 257.333,259.153 257.333 C 259.505 257.333,260.365 256.694,261.063 255.914 C 261.762 255.133,263.461 253.777,264.840 252.901 C 266.985 251.538,284.369 236.561,285.336 235.243 C 285.521 234.990,288.124 232.133,291.119 228.892 C 297.259 222.250,306.791 210.595,308.121 208.103 C 308.604 207.197,309.750 205.649,310.667 204.664 C 313.158 201.987,320.638 187.869,322.321 182.667 C 322.380 182.483,322.754 181.583,323.152 180.667 C 323.550 179.750,324.547 177.350,325.368 175.333 C 326.189 173.317,327.270 170.693,327.771 169.503 C 328.272 168.313,328.653 167.147,328.617 166.911 C 328.582 166.675,328.827 166.299,329.162 166.075 C 329.915 165.571,332.001 161.395,331.998 160.398 C 331.996 159.724,333.062 157.345,336.058 151.333 C 337.206 149.030,340.999 139.482,343.341 133.000 C 345.389 127.329,348.541 120.072,349.629 118.518 C 350.200 117.703,350.667 116.578,350.668 116.018 C 350.669 115.458,351.531 113.350,352.584 111.333 C 355.378 105.983,359.333 95.757,359.333 93.884 C 359.333 92.994,359.581 91.982,359.884 91.633 C 360.518 90.905,361.872 86.521,362.290 83.844 C 362.446 82.842,362.748 81.741,362.961 81.397 C 363.173 81.053,363.467 79.923,363.612 78.886 C 363.758 77.849,364.182 75.500,364.553 73.667 C 365.447 69.255,366.252 48.278,365.570 47.188 C 365.276 46.718,365.027 45.888,365.018 45.344 C 364.994 44.011,363.536 43.901,360.333 44.988 M361.498 51.673 C 362.116 54.905,361.061 75.715,360.164 78.000 C 359.948 78.550,359.704 79.600,359.622 80.333 C 359.540 81.067,358.698 83.767,357.751 86.333 C 356.803 88.900,356.020 91.750,356.010 92.667 C 356.000 93.583,355.545 95.190,354.999 96.236 C 354.454 97.283,354.201 98.453,354.439 98.837 C 354.676 99.221,354.300 99.953,353.602 100.463 C 352.904 100.973,352.432 101.603,352.552 101.862 C 352.974 102.773,351.019 107.728,347.859 113.759 C 346.103 117.110,344.667 120.241,344.667 120.715 C 344.667 121.613,342.806 125.913,340.612 130.085 C 339.912 131.415,339.238 133.437,339.113 134.578 C 338.988 135.719,338.386 137.205,337.776 137.879 C 337.166 138.553,336.667 139.735,336.667 140.505 C 336.667 141.275,336.198 142.374,335.624 142.947 C 335.051 143.521,334.747 144.258,334.950 144.586 C 335.153 144.914,334.903 145.527,334.396 145.948 C 333.888 146.369,333.278 147.753,333.040 149.024 C 332.801 150.294,332.331 151.333,331.995 151.333 C 331.660 151.333,331.044 152.608,330.627 154.167 C 330.211 155.725,329.588 157.343,329.245 157.763 C 328.901 158.183,328.677 158.783,328.747 159.096 C 328.817 159.410,327.628 162.261,326.104 165.432 C 324.580 168.602,323.333 171.687,323.333 172.286 C 323.333 172.885,322.910 173.537,322.393 173.736 C 321.877 173.934,321.254 174.900,321.010 175.882 C 320.613 177.478,319.539 179.957,315.329 189.000 C 314.646 190.467,313.876 192.417,313.619 193.333 C 313.361 194.250,312.217 196.323,311.075 197.940 C 309.934 199.557,307.942 202.407,306.648 204.273 C 304.021 208.064,294.920 219.108,289.928 224.564 C 288.134 226.525,286.667 228.550,286.667 229.064 C 286.667 229.579,286.372 230.000,286.012 230.000 C 285.468 230.000,277.891 236.566,270.710 243.261 C 269.205 244.663,266.943 246.426,256.734 254.149 C 254.586 255.774,249.325 259.154,246.028 261.026 C 245.358 261.407,244.402 262.043,243.904 262.439 C 243.407 262.835,241.800 263.535,240.333 263.994 C 237.321 264.937,232.447 267.411,232.111 268.167 C 231.989 268.442,231.615 268.667,231.279 268.667 C 230.765 268.667,228.319 269.965,217.431 276.018 C 216.827 276.354,213.731 277.829,210.550 279.297 C 207.369 280.765,204.581 282.266,204.355 282.632 C 204.128 282.999,202.531 283.719,200.805 284.232 C 199.079 284.745,196.492 285.826,195.056 286.633 C 193.620 287.441,190.770 288.701,188.723 289.434 C 186.675 290.167,182.750 291.622,180.000 292.668 C 173.902 294.987,168.654 296.463,164.667 296.981 C 163.017 297.195,159.567 297.638,157.000 297.966 C 154.433 298.293,150.109 299.049,147.390 299.646 C 144.671 300.242,139.571 301.150,136.057 301.663 C 132.542 302.177,127.117 303.097,124.000 303.708 C 120.883 304.319,117.356 304.968,116.160 305.150 C 114.965 305.332,113.823 305.748,113.621 306.074 C 113.175 306.796,110.667 306.869,110.667 306.160 C 110.667 305.881,111.342 304.890,112.167 303.958 C 112.992 303.025,113.967 301.790,114.333 301.211 C 115.467 299.425,122.850 288.775,125.801 284.671 C 128.388 281.074,129.260 280.553,131.333 281.361 C 131.517 281.433,131.951 281.436,132.299 281.368 C 132.647 281.301,136.397 281.116,140.632 280.959 C 149.030 280.647,150.394 280.495,151.092 279.797 C 151.347 279.542,152.388 279.333,153.405 279.333 C 154.422 279.333,155.416 279.073,155.612 278.755 C 155.809 278.436,157.431 277.982,159.217 277.745 C 161.002 277.508,162.668 277.110,162.918 276.860 C 163.168 276.610,163.888 276.331,164.519 276.240 C 166.328 275.977,172.929 273.869,173.667 273.319 C 174.033 273.045,175.340 272.605,176.570 272.342 C 177.799 272.079,180.199 271.236,181.903 270.469 C 183.606 269.701,185.558 268.979,186.240 268.863 C 186.923 268.747,188.273 268.119,189.240 267.467 C 190.208 266.814,193.550 265.434,196.667 264.399 C 199.783 263.364,202.633 262.151,203.000 261.702 C 203.367 261.254,204.530 260.672,205.586 260.410 C 206.641 260.147,208.586 259.197,209.907 258.299 C 211.228 257.401,212.836 256.667,213.480 256.667 C 214.124 256.667,215.227 256.174,215.930 255.572 C 216.633 254.970,218.644 253.981,220.398 253.375 C 222.846 252.529,223.697 251.861,224.062 250.498 C 224.707 248.086,223.149 246.691,221.487 248.193 C 220.853 248.767,218.833 249.730,217.000 250.332 C 215.167 250.935,213.217 251.932,212.667 252.547 C 212.117 253.163,210.467 254.084,209.000 254.595 C 207.533 255.105,205.618 256.080,204.743 256.762 C 203.869 257.443,202.571 258.000,201.859 258.000 C 201.147 258.000,197.812 259.332,194.449 260.959 C 191.085 262.587,185.333 265.022,181.667 266.369 C 178.000 267.717,174.600 269.143,174.111 269.538 C 173.622 269.933,172.722 270.327,172.111 270.414 C 169.462 270.793,164.948 272.128,164.367 272.705 C 164.018 273.051,162.874 273.333,161.823 273.333 C 160.772 273.333,159.322 273.649,158.601 274.035 C 155.221 275.844,132.667 277.813,132.667 276.299 C 132.667 275.907,141.605 265.674,144.865 262.333 C 145.939 261.233,148.038 258.734,149.530 256.779 C 151.022 254.823,153.163 252.260,154.288 251.081 C 155.413 249.903,156.848 248.286,157.478 247.488 C 158.107 246.690,159.457 245.859,160.478 245.643 C 163.260 245.053,170.643 242.648,173.667 241.346 C 175.133 240.715,177.533 239.886,179.000 239.505 C 180.467 239.123,183.312 238.179,185.324 237.405 C 187.335 236.632,189.594 236.000,190.342 236.000 C 191.091 236.000,192.310 235.575,193.052 235.055 C 193.794 234.535,195.586 233.914,197.034 233.674 C 198.482 233.434,200.267 232.964,201.000 232.629 C 201.733 232.295,204.133 231.621,206.333 231.132 C 208.533 230.643,210.275 229.938,210.204 229.566 C 210.132 229.193,211.051 228.889,212.246 228.889 C 213.440 228.889,215.419 228.389,216.644 227.778 C 217.869 227.167,219.425 226.667,220.102 226.667 C 220.779 226.667,221.333 226.393,221.333 226.059 C 221.333 225.724,222.565 225.242,224.071 224.988 C 225.576 224.734,227.376 223.957,228.071 223.263 C 228.765 222.568,230.045 222.000,230.915 222.000 C 231.785 222.000,233.960 221.375,235.749 220.612 C 237.537 219.849,240.050 218.784,241.333 218.246 C 242.617 217.709,244.188 216.983,244.824 216.634 C 245.461 216.285,246.361 215.999,246.824 215.998 C 247.981 215.995,256.945 212.303,260.094 210.534 C 264.027 208.324,263.439 204.510,259.491 206.618 C 258.854 206.958,257.883 207.406,257.333 207.614 C 256.783 207.822,255.883 208.251,255.333 208.568 C 252.160 210.396,249.984 211.334,248.897 211.342 C 248.220 211.346,245.899 212.246,243.739 213.342 C 241.579 214.437,239.122 215.333,238.279 215.333 C 237.435 215.333,236.560 215.633,236.333 216.000 C 236.107 216.367,235.376 216.667,234.709 216.667 C 234.042 216.667,233.120 217.121,232.659 217.675 C 232.199 218.230,231.487 218.628,231.078 218.560 C 230.668 218.492,229.583 218.761,228.667 219.157 C 227.750 219.554,226.084 220.218,224.965 220.632 C 223.845 221.047,222.137 222.121,221.168 223.020 C 220.148 223.966,218.974 224.487,218.378 224.258 C 217.478 223.913,214.285 224.796,198.167 229.846 C 196.242 230.449,194.667 231.201,194.667 231.516 C 194.667 231.832,194.045 231.893,193.286 231.652 C 192.412 231.374,191.447 231.627,190.661 232.339 C 189.977 232.958,189.112 233.275,188.738 233.044 C 188.364 232.813,186.920 233.128,185.529 233.743 C 184.138 234.359,182.700 234.939,182.333 235.032 C 181.967 235.125,180.767 235.581,179.667 236.045 C 177.172 237.097,177.477 237.004,174.484 237.629 C 173.100 237.918,171.600 238.649,171.150 239.254 C 170.608 239.984,169.127 240.419,166.738 240.549 L 163.143 240.746 165.828 237.539 C 171.490 230.779,178.113 224.454,195.361 209.333 C 205.440 200.497,204.799 200.924,207.833 201.017 C 209.392 201.065,210.667 200.856,210.667 200.552 C 210.667 200.248,211.556 200.000,212.644 200.000 C 213.731 200.000,215.945 199.160,217.565 198.133 C 219.184 197.106,221.820 195.879,223.421 195.408 C 225.023 194.936,227.910 193.829,229.836 192.947 C 231.763 192.066,233.486 191.338,233.665 191.331 C 233.844 191.323,235.046 190.723,236.337 189.998 C 237.628 189.273,239.955 188.487,241.509 188.252 C 243.062 188.017,245.833 187.143,247.667 186.311 C 249.500 185.479,251.750 184.582,252.667 184.317 C 253.583 184.052,256.196 182.973,258.472 181.918 C 260.749 180.863,263.105 180.000,263.709 180.000 C 264.312 180.000,266.271 179.264,268.061 178.365 C 269.851 177.466,272.445 176.534,273.825 176.293 C 275.204 176.053,279.183 174.518,282.667 172.882 C 286.150 171.246,289.675 169.629,290.500 169.287 C 291.325 168.946,292.675 168.386,293.500 168.044 C 294.325 167.702,296.100 167.050,297.445 166.597 C 299.778 165.810,301.333 163.825,301.333 161.635 C 301.333 160.396,299.419 160.384,298.052 161.614 C 297.474 162.135,295.351 163.210,293.335 164.003 C 291.319 164.795,289.338 165.720,288.932 166.057 C 286.684 167.922,277.751 171.812,276.500 171.470 C 276.225 171.395,276.000 171.774,276.000 172.312 C 276.000 172.877,275.606 173.140,275.067 172.934 C 274.555 172.737,273.937 172.896,273.695 173.288 C 273.453 173.680,272.522 174.000,271.627 174.000 C 270.732 174.000,270.000 174.306,270.000 174.679 C 270.000 175.063,269.306 175.185,268.406 174.959 C 267.529 174.739,266.612 174.883,266.367 175.279 C 266.122 175.676,265.431 176.000,264.832 176.000 C 264.232 176.000,261.475 177.113,258.704 178.474 C 255.934 179.835,253.140 180.866,252.495 180.765 C 251.851 180.664,251.144 181.051,250.924 181.624 C 250.704 182.197,249.887 182.667,249.108 182.667 C 248.330 182.667,246.037 183.307,244.013 184.089 C 238.164 186.351,237.826 186.469,234.667 187.373 C 233.017 187.845,231.382 188.480,231.033 188.783 C 230.685 189.085,229.851 189.333,229.179 189.333 C 228.508 189.333,227.785 189.783,227.574 190.333 C 227.363 190.883,226.698 191.331,226.095 191.328 C 225.493 191.325,222.600 192.351,219.667 193.607 C 207.944 198.630,207.589 198.457,215.000 191.333 C 217.860 188.583,221.600 184.983,223.309 183.333 C 225.018 181.683,227.854 179.133,229.611 177.667 C 234.420 173.652,242.794 165.904,244.543 163.850 C 245.931 162.220,251.588 158.000,252.384 158.000 C 252.764 158.000,264.574 152.268,266.000 151.391 C 266.550 151.053,268.800 150.277,271.000 149.666 C 273.200 149.056,277.250 147.680,280.000 146.608 C 282.750 145.536,285.392 144.661,285.872 144.663 C 286.351 144.665,288.087 143.917,289.729 143.000 C 291.371 142.083,293.108 141.333,293.590 141.333 C 294.071 141.333,297.803 139.683,301.881 137.667 C 305.960 135.650,309.606 134.000,309.982 134.000 C 310.359 134.000,310.667 133.733,310.667 133.408 C 310.667 133.082,311.658 132.629,312.871 132.402 C 317.644 131.506,322.000 128.572,322.000 126.252 C 322.000 124.441,321.548 124.284,320.052 125.575 C 319.474 126.075,317.500 127.026,315.667 127.688 C 313.833 128.351,311.860 129.292,311.281 129.780 C 310.702 130.268,309.905 130.667,309.511 130.667 C 309.116 130.667,307.564 131.267,306.063 132.000 C 304.562 132.733,302.105 133.933,300.604 134.667 C 299.102 135.400,297.302 136.000,296.604 136.000 C 295.905 136.000,294.733 136.600,294.000 137.333 C 293.267 138.067,292.667 138.470,292.667 138.230 C 292.667 137.990,292.117 138.291,291.446 138.898 C 290.774 139.506,290.051 139.828,289.837 139.615 C 289.624 139.401,288.748 139.660,287.891 140.188 C 287.034 140.717,284.083 141.813,281.333 142.623 C 278.583 143.433,275.050 144.674,273.482 145.381 C 271.914 146.088,270.198 146.667,269.668 146.667 C 269.138 146.667,266.985 147.427,264.884 148.356 C 258.622 151.126,258.818 150.031,265.724 143.667 C 269.304 140.367,272.856 137.063,273.617 136.324 C 274.378 135.586,277.550 132.737,280.667 129.993 C 283.783 127.249,287.833 123.621,289.667 121.931 C 294.113 117.832,296.411 115.845,300.000 112.995 C 304.553 109.379,306.098 107.856,307.434 105.667 C 308.106 104.567,308.883 103.682,309.161 103.702 C 309.887 103.752,325.667 86.678,325.667 85.842 C 325.667 85.459,325.172 84.833,324.568 84.452 C 323.489 83.772,319.333 86.757,319.333 88.212 C 319.333 88.892,317.604 90.667,316.942 90.667 C 316.331 90.667,311.127 96.226,308.828 99.333 C 306.695 102.218,297.950 110.667,297.098 110.667 C 296.754 110.667,292.992 113.900,288.737 117.851 C 284.481 121.803,279.950 125.882,278.667 126.915 C 276.442 128.707,265.903 138.359,258.020 145.824 C 255.992 147.745,254.135 149.320,253.892 149.324 C 253.209 149.338,253.655 147.412,254.540 146.527 C 254.976 146.090,255.333 145.342,255.333 144.864 C 255.333 143.894,256.806 141.075,259.522 136.847 C 260.518 135.296,261.333 133.716,261.333 133.338 C 261.333 132.631,262.446 130.446,263.711 128.667 C 264.102 128.117,265.277 125.567,266.323 123.000 C 268.723 117.105,274.928 104.981,276.047 104.000 C 276.982 103.179,280.667 95.641,280.667 94.548 C 280.667 91.430,276.722 94.980,275.722 98.998 C 275.449 100.097,273.919 102.583,272.323 104.521 C 270.727 106.460,269.064 109.161,268.626 110.523 C 268.189 111.885,267.423 113.470,266.924 114.044 C 266.424 114.618,265.826 116.036,265.594 117.195 C 265.362 118.355,264.756 119.649,264.247 120.072 C 263.738 120.494,263.137 121.995,262.911 123.407 C 262.685 124.819,262.141 126.273,261.702 126.638 C 261.263 127.002,259.601 129.858,258.008 132.983 C 256.416 136.109,254.886 138.667,254.608 138.667 C 254.331 138.667,253.742 139.792,253.301 141.167 C 252.859 142.542,252.125 144.117,251.668 144.667 C 251.211 145.217,250.311 147.317,249.667 149.333 C 249.022 151.350,248.123 153.450,247.668 154.000 C 247.213 154.550,246.727 155.360,246.587 155.799 C 246.235 156.910,233.175 170.096,229.417 173.137 C 226.640 175.383,224.914 176.931,217.676 183.667 C 216.494 184.767,214.328 186.717,212.862 188.000 C 211.396 189.283,208.202 192.257,205.762 194.608 C 203.323 196.960,201.153 198.708,200.939 198.494 C 200.533 198.088,205.018 186.204,206.054 184.942 C 206.381 184.544,207.064 183.044,207.572 181.609 C 208.080 180.174,210.184 175.517,212.247 171.259 C 214.311 167.002,216.000 163.147,216.000 162.693 C 216.000 162.239,216.405 160.923,216.900 159.767 C 217.396 158.612,218.472 155.867,219.292 153.667 C 220.112 151.467,221.028 149.067,221.327 148.333 C 221.626 147.600,222.547 145.200,223.373 143.000 C 224.200 140.800,225.400 138.400,226.039 137.667 C 226.678 136.933,227.617 135.133,228.125 133.667 C 228.634 132.200,229.771 129.650,230.653 128.000 C 232.897 123.800,232.882 123.333,230.497 123.333 C 229.368 123.333,228.634 123.523,228.865 123.754 C 229.097 123.986,228.847 124.802,228.310 125.569 C 227.773 126.336,227.333 127.472,227.333 128.093 C 227.333 128.714,227.108 129.322,226.833 129.444 C 225.730 129.935,218.674 145.416,216.704 151.667 C 215.549 155.333,213.864 159.759,212.961 161.502 C 212.057 163.245,211.256 165.420,211.180 166.336 C 211.105 167.251,210.801 168.000,210.505 168.000 C 210.209 168.000,209.655 168.825,209.274 169.833 C 208.892 170.842,207.437 173.917,206.041 176.667 C 204.644 179.417,202.703 183.767,201.728 186.333 C 200.753 188.900,199.387 192.200,198.692 193.667 C 197.997 195.133,197.217 197.379,196.960 198.657 C 196.110 202.877,193.978 205.278,181.333 216.249 C 174.203 222.436,169.217 227.361,164.800 232.582 C 161.782 236.148,157.651 240.832,155.081 243.600 C 154.026 244.737,151.991 247.242,150.560 249.167 C 149.129 251.092,147.688 252.667,147.357 252.667 C 147.027 252.667,146.562 253.280,146.324 254.031 C 146.086 254.781,144.640 256.726,143.112 258.354 C 141.584 259.982,139.433 262.391,138.333 263.707 C 137.233 265.022,135.944 266.452,135.468 266.883 C 132.244 269.802,131.333 270.819,131.333 271.497 C 131.333 272.066,131.138 272.072,130.585 271.518 C 129.277 270.211,130.481 255.918,132.343 250.640 C 132.888 249.096,133.333 247.406,133.333 246.884 C 133.333 246.362,133.937 244.686,134.675 243.158 C 135.945 240.530,136.585 237.680,138.012 228.290 C 139.045 221.494,141.798 212.188,143.954 208.208 C 145.079 206.130,146.000 203.901,146.000 203.254 C 146.000 202.608,146.267 201.914,146.593 201.712 C 146.919 201.511,147.384 200.555,147.627 199.589 C 147.869 198.622,149.103 196.476,150.367 194.820 C 152.753 191.695,153.409 188.667,151.699 188.667 C 150.471 188.667,147.264 193.305,144.968 198.400 C 143.993 200.563,142.228 204.433,141.046 207.000 C 139.031 211.377,136.032 221.605,135.672 225.333 C 135.583 226.250,135.154 228.950,134.717 231.333 C 133.982 235.342,133.153 238.267,129.989 248.000 C 129.334 250.017,128.416 254.067,127.950 257.000 C 127.483 259.933,126.854 262.618,126.551 262.967 C 125.809 263.820,125.850 266.495,126.613 266.967 C 128.043 267.851,127.323 275.090,125.573 277.418 C 122.820 281.082,119.333 286.641,119.333 287.367 C 119.333 287.738,118.883 288.215,118.333 288.426 C 117.783 288.637,117.333 289.047,117.333 289.338 C 117.333 290.042,113.088 296.332,110.362 299.668 C 109.162 301.136,107.541 303.386,106.760 304.668 L 105.338 307.000 105.336 302.752 C 105.333 298.245,106.976 285.684,108.006 282.333 C 108.344 281.233,108.814 278.833,109.051 277.000 C 109.288 275.167,109.575 273.169,109.691 272.560 C 110.262 269.542,110.703 265.042,111.020 259.000 C 111.676 246.468,113.222 238.937,117.976 225.115 C 119.089 221.878,120.000 218.803,120.000 218.281 C 120.000 217.760,120.294 217.333,120.654 217.333 C 121.014 217.333,121.487 216.508,121.706 215.500 C 122.128 213.555,122.429 212.760,124.549 208.000 C 125.284 206.350,126.550 203.500,127.361 201.667 C 128.173 199.833,129.038 198.183,129.283 198.000 C 129.527 197.817,131.717 194.817,134.149 191.333 C 136.581 187.850,139.717 183.789,141.118 182.308 C 142.520 180.828,144.267 178.773,145.000 177.742 C 146.963 174.982,150.045 171.060,150.557 170.672 C 150.802 170.486,152.777 168.083,154.946 165.333 C 158.468 160.867,171.983 147.046,174.738 145.093 C 175.327 144.675,177.877 142.461,180.405 140.172 C 185.517 135.544,199.735 124.000,200.324 124.000 C 200.531 124.000,204.004 121.600,208.041 118.667 C 212.077 115.733,215.644 113.333,215.968 113.333 C 216.291 113.333,216.656 113.082,216.778 112.776 C 216.900 112.469,218.538 111.344,220.417 110.276 C 230.891 104.323,233.181 102.978,234.986 101.719 C 237.419 100.022,239.345 98.858,240.667 98.286 C 245.106 96.366,250.056 93.714,251.214 92.635 C 251.982 91.919,253.034 91.333,253.551 91.333 C 254.646 91.333,265.869 85.780,267.317 84.522 C 267.858 84.051,268.458 83.706,268.650 83.755 C 268.843 83.804,272.600 81.974,277.000 79.690 C 281.400 77.405,287.503 74.541,290.563 73.325 C 293.623 72.109,296.280 70.714,296.468 70.224 C 296.656 69.734,297.516 69.333,298.380 69.333 C 300.107 69.333,306.651 67.140,309.436 65.628 C 310.409 65.099,311.657 64.667,312.210 64.667 C 312.762 64.667,315.116 63.767,317.440 62.667 C 319.765 61.567,322.271 60.667,323.010 60.667 C 323.749 60.667,325.473 60.067,326.841 59.333 C 328.209 58.600,330.062 58.000,330.958 58.000 C 331.855 58.000,332.748 57.741,332.943 57.425 C 333.139 57.108,334.732 56.481,336.483 56.030 C 338.234 55.579,340.267 54.979,341.000 54.697 C 343.917 53.576,347.160 52.664,348.381 52.623 C 349.088 52.598,351.317 52.018,353.333 51.333 C 358.746 49.495,361.100 49.593,361.498 51.673 M185.482 158.629 C 184.300 159.708,183.333 161.191,183.333 161.923 C 183.333 162.655,183.067 163.419,182.742 163.620 C 182.417 163.821,181.954 165.039,181.712 166.326 C 181.471 167.613,181.052 168.667,180.783 168.667 C 180.230 168.667,178.595 172.390,178.371 174.157 C 178.290 174.793,177.759 175.843,177.190 176.490 C 175.891 177.967,172.667 184.806,172.667 186.083 C 172.667 186.607,172.262 187.628,171.768 188.352 C 171.274 189.075,170.322 191.167,169.653 193.000 C 168.984 194.833,168.178 196.677,167.862 197.096 C 167.545 197.516,167.345 198.116,167.416 198.430 C 167.487 198.743,167.358 199.450,167.130 200.000 C 166.634 201.194,164.981 205.845,163.575 210.000 C 163.017 211.650,162.312 213.600,162.009 214.333 C 161.705 215.067,161.104 217.167,160.673 219.000 C 159.579 223.653,156.537 233.531,155.951 234.333 C 154.696 236.054,154.968 240.333,156.333 240.333 C 157.378 240.333,157.940 239.468,158.930 236.333 C 160.499 231.364,161.952 227.358,162.735 225.842 C 163.064 225.206,163.333 224.212,163.333 223.634 C 163.333 222.452,166.612 210.698,167.229 209.667 C 167.448 209.300,167.712 208.400,167.815 207.667 C 167.919 206.933,168.272 205.733,168.601 205.000 C 168.931 204.267,170.014 201.267,171.009 198.333 C 172.004 195.400,173.500 191.800,174.334 190.333 C 175.168 188.867,176.382 186.017,177.032 184.000 C 177.682 181.983,178.777 179.329,179.465 178.102 C 180.154 176.875,182.202 172.552,184.018 168.495 C 185.834 164.439,187.809 160.579,188.408 159.918 C 191.037 157.013,188.483 155.888,185.482 158.629 " stroke="none" fill="#000000" fill-rule="evenodd"></path></g></svg>