<svg id="svg" xmlns="http://www.w3.org/2000/svg" xmlns:xlink="http://www.w3.org/1999/xlink" width="400" height="295.08196721311475" viewBox="0, 0, 400,295.08196721311475"><g id="svgg"><path id="path0" d="M180.984 2.714 C 54.842 13.198,-13.056 77.983,29.043 147.688 C 48.195 179.398,97.921 205.704,145.574 209.335 C 159.137 210.368,154.039 206.004,196.398 252.845 C 215.506 273.976,231.327 291.078,231.555 290.849 C 231.783 290.621,225.279 272.743,217.101 251.119 C 208.924 229.495,202.391 211.634,202.585 211.428 C 202.778 211.221,207.882 210.745,213.927 210.369 C 345.218 202.198,415.760 128.699,359.468 58.725 C 324.544 15.311,262.746 -4.082,180.984 2.714 M148.197 50.492 C 148.197 51.574,147.311 52.459,146.230 52.459 C 145.148 52.459,144.262 51.574,144.262 50.492 C 144.262 49.410,145.148 48.525,146.230 48.525 C 147.311 48.525,148.197 49.410,148.197 50.492 M118.381 61.992 C 116.815 65.044,115.195 69.695,114.781 72.327 C 113.327 81.580,108.622 81.821,103.950 72.882 L 101.844 68.852 100.757 72.975 C 99.482 77.808,96.277 79.572,94.634 76.345 C 92.928 72.993,90.185 57.574,91.128 56.632 C 92.604 55.155,94.109 59.206,94.996 67.046 C 95.890 74.948,98.361 77.798,98.361 70.927 C 98.361 61.816,102.343 60.118,104.763 68.197 C 106.932 75.436,107.966 74.844,111.554 64.304 C 114.530 55.562,117.091 52.828,119.959 55.333 C 120.757 56.030,120.170 58.506,118.381 61.992 M162.259 56.331 C 161.891 57.739,162.265 59.214,163.090 59.609 C 164.187 60.135,164.160 60.530,162.992 61.079 C 158.656 63.118,159.502 77.377,163.959 77.377 C 165.388 77.377,166.557 78.031,166.557 78.831 C 166.557 80.705,160.016 79.173,157.499 76.710 C 155.659 74.910,154.529 59.016,156.240 59.016 C 156.697 59.016,157.380 57.836,157.757 56.393 C 158.134 54.951,159.452 53.770,160.686 53.770 C 162.265 53.770,162.731 54.528,162.259 56.331 M133.238 58.267 C 135.610 59.928,136.578 73.898,135.018 83.934 C 134.962 84.295,134.382 83.262,133.730 81.639 C 132.817 79.368,131.488 78.689,127.957 78.689 C 120.853 78.689,118.188 70.216,122.605 61.674 C 124.274 58.447,125.654 57.473,129.872 56.546 C 130.253 56.462,131.767 57.236,133.238 58.267 M128.739 61.239 C 126.401 65.607,126.247 76.721,128.525 76.721 C 129.958 76.721,130.728 74.586,131.361 68.852 C 132.272 60.611,131.020 56.976,128.739 61.239 M149.724 62.982 C 149.481 64.047,148.891 68.459,148.412 72.787 C 147.577 80.331,147.379 80.673,143.607 81.085 C 140.430 81.431,139.988 81.191,141.311 79.839 C 143.253 77.855,143.539 64.262,141.639 64.262 C 139.419 64.262,140.190 61.869,142.623 61.209 C 146.734 60.093,150.185 60.955,149.724 62.982 M220.328 63.529 C 220.328 67.909,217.939 69.044,216.536 65.330 C 215.209 61.816,215.774 60.328,218.438 60.328 C 219.567 60.328,220.328 61.616,220.328 63.529 M245.902 68.842 C 245.902 71.349,246.573 72.770,247.760 72.777 C 250.822 72.794,250.856 75.778,247.812 77.407 C 241.085 81.008,247.504 100.910,255.410 100.964 C 257.251 100.976,258.361 101.785,258.361 103.115 C 258.361 105.685,252.656 104.888,245.303 101.290 C 240.742 99.059,240.634 98.821,239.500 88.525 C 238.790 82.081,237.651 77.628,236.549 76.984 C 234.157 75.587,234.262 73.443,236.721 73.443 C 238.007 73.443,238.689 72.155,238.689 69.727 C 238.689 65.211,239.718 64.033,243.225 64.535 C 245.238 64.823,245.902 65.891,245.902 68.842 M184.349 80.410 C 184.713 81.357,183.822 84.750,182.370 87.951 C 180.394 92.306,179.722 96.594,179.701 104.995 C 179.654 123.240,174.559 125.239,163.279 111.438 L 158.033 105.020 157.643 112.073 C 156.857 126.276,151.828 125.186,144.894 109.308 C 142.108 102.927,139.055 96.773,138.110 95.634 C 135.876 92.940,135.919 90.492,138.200 90.492 C 140.891 90.492,142.293 92.783,146.086 103.382 C 152.528 121.381,154.098 121.979,154.098 106.435 C 154.098 94.315,156.247 93.124,161.306 102.440 C 164.924 109.101,167.702 112.787,169.105 112.787 C 170.391 112.787,173.562 92.373,173.310 85.711 C 173.129 80.938,173.504 80.107,176.058 79.615 C 181.760 78.518,183.694 78.703,184.349 80.410 M205.610 80.730 C 207.863 82.308,208.525 84.068,208.525 88.484 C 208.525 93.765,211.394 111.299,213.178 116.921 C 214.511 121.120,211.474 119.545,209.981 115.263 C 208.884 112.115,208.030 111.391,206.247 112.096 C 191.791 117.811,181.955 104.588,187.763 87.250 C 190.404 79.366,199.118 76.183,205.610 80.730 M228.515 81.968 C 228.330 83.410,229.163 90.062,230.366 96.750 C 232.771 110.115,231.871 112.641,224.668 112.745 C 221.517 112.791,219.414 110.687,221.812 109.888 C 222.936 109.513,222.924 107.097,221.764 100.267 C 219.618 87.640,219.187 86.557,216.305 86.557 C 212.276 86.557,213.350 84.221,218.689 81.375 C 224.835 78.097,228.981 78.347,228.515 81.968 M195.995 88.639 C 194.535 100.320,196.587 109.508,200.656 109.508 C 204.229 109.508,204.538 107.182,203.093 91.126 C 201.982 78.783,197.425 77.186,195.995 88.639 M296.479 97.209 C 298.757 101.466,293.543 106.564,290.264 103.286 C 288.448 101.469,288.326 100.495,289.575 97.753 C 291.423 93.699,294.472 93.458,296.479 97.209 M285.171 98.652 C 287.048 101.331,287.010 101.770,284.699 104.080 C 281.579 107.200,278.033 106.063,278.033 101.943 C 278.033 96.002,282.026 94.161,285.171 98.652 M270.249 101.143 C 272.326 105.024,267.533 110.255,264.334 107.600 C 261.901 105.581,261.691 102.113,263.869 99.934 C 266.223 97.580,268.582 98.027,270.249 101.143 M311.453 116.684 C 311.886 117.385,311.292 119.405,310.134 121.173 C 308.976 122.941,307.734 127.826,307.374 132.030 C 306.413 143.265,305.749 145.574,303.477 145.574 C 301.380 145.574,301.427 141.950,303.785 121.639 C 304.500 115.479,308.936 112.612,311.453 116.684 M114.536 127.869 C 113.852 144.280,112.290 159.554,111.150 160.984 C 109.429 163.141,107.541 163.074,107.541 160.855 C 107.541 159.882,105.206 158.169,102.352 157.048 C 91.787 152.898,94.371 136.181,105.833 134.529 C 107.659 134.266,108.288 132.780,108.600 127.997 C 109.164 119.333,114.896 119.210,114.536 127.869 M232.752 133.443 C 233.183 136.869,234.131 142.918,234.860 146.885 C 237.163 159.418,237.295 167.983,235.199 168.787 C 232.452 169.841,231.907 168.764,231.288 161.060 C 230.980 157.231,230.192 151.443,229.537 148.197 C 227.532 138.257,226.684 129.911,227.539 128.528 C 229.590 125.209,232.005 127.485,232.752 133.443 M224.494 143.059 C 227.564 162.137,227.594 170.819,224.590 170.248 C 222.822 169.911,222.112 168.007,221.497 161.955 C 221.058 157.634,219.941 149.284,219.015 143.401 C 217.282 132.396,217.790 127.898,220.656 128.852 C 221.621 129.173,223.199 135.016,224.494 143.059 M165.246 133.032 C 165.246 133.983,164.250 135.571,163.033 136.561 C 161.085 138.145,160.928 138.073,161.722 135.958 C 162.217 134.637,162.623 132.684,162.623 131.619 C 162.623 130.553,163.213 130.046,163.934 130.492 C 164.656 130.938,165.246 132.080,165.246 133.032 M293.045 132.433 C 301.655 135.706,300.865 147.346,292.080 146.661 C 286.154 146.198,285.902 146.401,285.902 151.628 C 285.902 154.581,286.359 154.972,289.180 154.433 C 293.071 153.689,293.511 155.410,289.922 157.331 C 283.935 160.535,278.629 152.169,279.684 141.188 C 280.562 132.051,284.777 129.289,293.045 132.433 M287.374 135.446 C 283.912 138.907,285.639 142.951,290.579 142.951 C 294.865 142.951,295.222 142.661,294.841 139.486 C 294.372 135.568,289.751 133.068,287.374 135.446 M255.991 137.810 C 256.317 138.787,257.617 138.702,260.179 137.534 C 263.459 136.040,264.105 136.130,265.697 138.307 C 267.385 140.616,267.653 140.633,269.918 138.583 C 274.674 134.279,275.410 135.743,275.410 149.508 C 275.410 157.377,274.885 162.623,274.098 162.623 C 273.332 162.623,272.787 158.215,272.787 152.022 C 272.787 140.762,271.253 138.910,267.797 145.998 C 265.219 151.288,262.283 150.598,263.205 144.918 C 264.043 139.750,262.537 139.023,258.376 142.587 C 256.389 144.288,255.733 146.472,255.718 151.439 C 255.671 166.909,250.735 163.940,249.592 147.755 L 248.791 136.393 252.155 136.393 C 254.005 136.393,255.732 137.031,255.991 137.810 M100.191 142.421 C 97.941 147.807,99.136 152.816,103.028 154.309 C 106.165 155.513,107.261 153.486,107.751 145.574 C 108.339 136.065,103.661 134.115,100.191 142.421 M170.128 140.265 C 169.760 141.673,170.129 143.048,170.947 143.321 C 171.905 143.641,171.622 144.631,170.152 146.101 C 166.201 150.052,167.028 159.719,171.475 161.550 C 174.526 162.807,174.702 163.125,172.617 163.614 C 167.105 164.907,163.279 159.739,163.279 151.003 C 163.279 146.580,163.652 142.960,164.109 142.956 C 164.566 142.953,165.249 141.770,165.626 140.328 C 166.003 138.885,167.321 137.705,168.555 137.705 C 170.134 137.705,170.600 138.463,170.128 140.265 M135.512 141.696 C 143.743 148.171,139.734 165.246,129.983 165.246 C 112.431 165.246,113.665 140.708,131.299 139.090 C 131.742 139.050,133.638 140.222,135.512 141.696 M158.626 141.522 C 160.710 145.417,162.040 167.581,160.079 165.748 C 159.218 164.942,158.171 159.760,157.752 154.231 C 156.584 138.781,149.642 140.689,149.552 156.485 C 149.511 163.639,149.323 164.091,146.557 163.698 C 143.786 163.304,143.606 162.656,143.593 153.012 C 143.577 141.390,144.639 138.385,147.460 142.073 C 149.229 144.386,149.396 144.374,152.025 141.745 C 155.409 138.362,156.907 138.311,158.626 141.522 M126.339 145.015 C 123.562 152.252,125.190 161.967,129.180 161.967 C 132.954 161.967,133.131 161.708,133.519 155.624 C 134.080 146.833,128.694 138.876,126.339 145.015 M190.964 148.950 C 190.584 149.940,191.209 151.274,192.354 151.915 C 193.784 152.715,193.972 153.366,192.955 153.994 C 189.033 156.418,192.237 169.180,196.767 169.180 C 198.185 169.180,199.344 169.844,199.344 170.656 C 199.344 172.402,191.975 171.227,189.370 169.065 C 188.435 168.289,187.264 164.899,186.767 161.532 C 186.271 158.165,185.210 154.922,184.408 154.326 C 183.361 153.548,183.412 153.056,184.590 152.578 C 185.492 152.212,186.230 150.831,186.230 149.508 C 186.230 147.065,188.630 145.427,190.581 146.539 C 191.171 146.875,191.343 147.961,190.964 148.950 M214.790 147.615 C 216.964 149.138,217.705 150.971,217.705 154.828 L 217.705 160.000 211.720 160.000 C 205.758 160.000,205.737 160.016,206.146 164.262 C 206.512 168.049,206.960 168.482,210.164 168.147 C 214.048 167.741,215.098 169.702,211.696 171.007 C 204.771 173.665,199.344 166.662,199.344 155.069 C 199.344 145.748,206.911 142.097,214.790 147.615 M205.348 151.536 C 204.277 155.801,205.289 157.377,209.097 157.377 C 213.434 157.377,215.651 154.334,213.815 150.904 C 211.690 146.931,206.405 147.326,205.348 151.536 M306.110 153.249 C 306.490 153.864,305.975 155.487,304.964 156.856 C 302.798 159.790,299.438 157.652,300.768 154.187 C 301.612 151.989,304.967 151.400,306.110 153.249 " stroke="none" fill="#000000" fill-rule="evenodd"></path></g></svg>